<svg xmlns="http://www.w3.org/2000/svg" xmlns:xlink="http://www.w3.org/1999/xlink" width="50" zoomAndPan="magnify" viewBox="0 0 37.5 37.499999" height="50" preserveAspectRatio="xMidYMid meet" version="1.0"><defs><clipPath id="6a038c2c27"><path d="M 4.453125 3 L 26 3 L 26 24 L 4.453125 24 Z M 4.453125 3 " clip-rule="nonzero"/></clipPath><clipPath id="b2ac50aebb"><path d="M 26 0 L 32.953125 0 L 32.953125 6 L 26 6 Z M 26 0 " clip-rule="nonzero"/></clipPath></defs><g clip-path="url(#6a038c2c27)"><path fill="#494f9b" d="M 25.199219 4.785156 C 24.84375 5.441406 24.257812 5.855469 23.421875 6 C 23.820312 6.429688 24.308594 6.679688 24.886719 6.753906 C 21.941406 12.265625 22.65625 15.707031 25.476562 19.222656 L 24.382812 18.863281 L 25.046875 20.0625 C 19.867188 23.640625 11.890625 23.878906 5.429688 21.695312 L 6.640625 20.546875 L 4.453125 21.144531 C 6.441406 18.351562 4.542969 12.992188 6.699219 8.574219 C 8.691406 4.496094 13.699219 2.710938 18.28125 3.132812 C 21.605469 3.433594 24.015625 4.953125 25.199219 4.785156 Z M 25.199219 4.785156 " fill-opacity="1" fill-rule="evenodd"/></g><path fill="#ffa775" d="M 27.769531 24.171875 C 27.636719 23.445312 26.066406 22.109375 25.792969 21.363281 C 25.226562 19.816406 25.765625 18.5 25.203125 18.125 C 24.8125 17.863281 23.835938 17.972656 24.183594 20.804688 C 23.027344 20.324219 22.789062 21.3125 22.820312 21.636719 C 22.332031 21.664062 21.992188 22.472656 22.230469 22.925781 C 21.984375 24.257812 22.542969 24.699219 23.558594 24.394531 C 24.160156 25.078125 24.808594 25.152344 25.707031 24.925781 C 25.722656 26.121094 25.183594 26.695312 24.8125 27.527344 L 23.707031 26.59375 L 22.25 28.683594 C 22.25 28.683594 24.117188 30.667969 25.089844 30.507812 C 27.429688 30.125 27.925781 25.023438 27.769531 24.171875 Z M 27.769531 24.171875 " fill-opacity="1" fill-rule="evenodd"/><path fill="#29263b" d="M 24.769531 28.148438 C 24.707031 28.148438 24.675781 28.117188 24.675781 28.054688 L 24.671875 27.578125 C 24.671875 27.515625 24.703125 27.484375 24.765625 27.484375 C 24.828125 27.484375 24.859375 27.515625 24.859375 27.578125 L 24.863281 28.054688 C 24.863281 28.117188 24.832031 28.148438 24.769531 28.148438 Z M 24.769531 28.148438 " fill-opacity="1" fill-rule="nonzero"/><path fill="#8ed8aa" d="M 19.09375 23.40625 C 19.09375 23.40625 20.472656 23.921875 20.914062 24.164062 C 21.898438 24.707031 24.792969 27.261719 24.792969 27.261719 C 24.019531 27.695312 23.050781 28.800781 22.738281 29.835938 L 23.761719 34.785156 C 22.417969 36.832031 14.820312 37.496094 13.703125 36.136719 C 13.121094 34.332031 12.234375 33.34375 10.617188 32.734375 C 10.617188 32.734375 10.621094 28.667969 12.117188 26.101562 C 12.824219 24.886719 14.542969 23.570312 14.542969 23.570312 Z M 19.09375 23.40625 " fill-opacity="1" fill-rule="evenodd"/><path fill="#29263b" d="M 22.648438 29.8125 C 22.597656 29.8125 22.566406 29.785156 22.558594 29.734375 C 22.375 28.914062 22.132812 28.113281 21.835938 27.324219 C 21.816406 27.265625 21.835938 27.226562 21.890625 27.207031 C 21.949219 27.183594 21.992188 27.203125 22.011719 27.261719 C 22.316406 28.054688 22.558594 28.867188 22.742188 29.695312 C 22.753906 29.757812 22.730469 29.796875 22.667969 29.808594 C 22.664062 29.808594 22.65625 29.8125 22.648438 29.8125 Z M 22.648438 29.8125 " fill-opacity="1" fill-rule="nonzero"/><path fill="#ffffff" d="M 19.132812 23.125 L 19.683594 23.480469 C 19.683594 23.480469 21.046875 25.851562 19.773438 26.386719 C 18.746094 26.820312 17.582031 25.875 17.582031 25.875 C 17.582031 25.875 16.875 27.148438 15.558594 26.992188 C 14.027344 26.804688 13.753906 23.835938 13.753906 23.835938 L 14.382812 23.332031 Z M 19.132812 23.125 " fill-opacity="1" fill-rule="evenodd"/><path fill="#ffa775" d="M 13.832031 32.851562 C 12.847656 33.203125 11.417969 33.027344 10.621094 32.53125 C 10.488281 33.988281 10.488281 35.28125 10.632812 36.394531 C 11.449219 36.867188 12.601562 36.902344 13.945312 36.542969 C 13.691406 35.316406 13.683594 34.109375 13.832031 32.851562 Z M 13.832031 32.851562 " fill-opacity="1" fill-rule="evenodd"/><path fill="#29263b" d="M 13.839844 32.945312 C 13.835938 32.945312 13.828125 32.941406 13.824219 32.941406 C 13.761719 32.933594 13.734375 32.898438 13.746094 32.835938 C 13.84375 32.089844 14.011719 31.46875 14.238281 30.980469 C 14.261719 30.921875 14.304688 30.90625 14.363281 30.933594 C 14.421875 30.960938 14.4375 31.003906 14.410156 31.0625 C 14.1875 31.53125 14.027344 32.136719 13.933594 32.859375 C 13.925781 32.914062 13.894531 32.945312 13.839844 32.945312 Z M 13.839844 32.945312 " fill-opacity="1" fill-rule="nonzero"/><path fill="#ffa775" d="M 21.957031 7.726562 C 21.957031 7.726562 25.566406 13.121094 25.238281 16.492188 C 24.894531 20.058594 20.527344 20.980469 18.242188 21.085938 C 17.894531 22.15625 18.257812 23.132812 19.152344 23.503906 C 18.882812 24.371094 18.375 25.0625 17.628906 25.578125 C 16.675781 25.261719 15.652344 24.621094 14.546875 23.574219 C 15.476562 23.226562 16.015625 21.769531 14.210938 19.019531 C 10.9375 20.5625 9.574219 15.761719 13.148438 16.296875 C 12.183594 14.457031 11.464844 12.753906 11.039062 10.6875 L 12.554688 9.5 L 12.394531 7.59375 L 13.105469 9.1875 L 16.074219 8.273438 L 15.84375 6.496094 L 16.855469 7.941406 L 19.835938 7.621094 L 19.402344 6.117188 L 20.671875 7.59375 Z M 21.957031 7.726562 " fill-opacity="1" fill-rule="evenodd"/><path fill="#f08855" d="M 16.570312 20.898438 C 16.734375 21.429688 17.203125 21.976562 18.128906 22.117188 C 18.089844 21.765625 18.128906 21.421875 18.242188 21.085938 C 17.710938 21.105469 17.195312 21.039062 16.570312 20.898438 Z M 16.570312 20.898438 " fill-opacity="1" fill-rule="evenodd"/><path fill="#29263b" d="M 21.304688 13.878906 C 21.230469 13.878906 21.199219 13.84375 21.210938 13.769531 C 21.300781 13.136719 21.230469 12.71875 20.996094 12.527344 C 20.761719 12.332031 20.339844 12.339844 19.742188 12.554688 C 19.679688 12.578125 19.640625 12.558594 19.617188 12.496094 C 19.597656 12.433594 19.617188 12.394531 19.675781 12.375 C 20.351562 12.136719 20.824219 12.136719 21.117188 12.378906 C 21.410156 12.621094 21.5 13.085938 21.398438 13.796875 C 21.386719 13.851562 21.355469 13.878906 21.304688 13.878906 Z M 21.304688 13.878906 " fill-opacity="1" fill-rule="nonzero"/><path fill="#971b1b" d="M 20.554688 16.070312 C 21.132812 16.167969 21.203125 17.671875 20.285156 17.628906 C 19.371094 17.585938 19.710938 15.933594 20.554688 16.070312 Z M 20.554688 16.070312 " fill-opacity="1" fill-rule="evenodd"/><path fill="#29263b" d="M 13.59375 10.730469 C 13.574219 10.730469 13.554688 10.726562 13.539062 10.722656 C 13.390625 10.683594 13.335938 10.59375 13.375 10.445312 C 13.617188 9.484375 14.21875 8.96875 15.121094 8.960938 C 15.269531 8.960938 15.34375 9.035156 15.347656 9.183594 C 15.351562 9.335938 15.273438 9.414062 15.125 9.414062 C 14.425781 9.421875 14.007812 9.785156 13.8125 10.558594 C 13.785156 10.671875 13.710938 10.730469 13.59375 10.730469 Z M 13.59375 10.730469 " fill-opacity="1" fill-rule="nonzero"/><path fill="#29263b" d="M 21.996094 9.496094 C 21.894531 9.496094 21.824219 9.449219 21.785156 9.351562 C 21.691406 9.09375 21.511719 8.921875 21.25 8.835938 C 21.050781 8.78125 20.867188 8.816406 20.703125 8.945312 C 20.582031 9.039062 20.476562 9.023438 20.386719 8.902344 C 20.292969 8.78125 20.308594 8.675781 20.429688 8.585938 C 20.710938 8.363281 21.027344 8.300781 21.371094 8.398438 C 21.777344 8.523438 22.054688 8.785156 22.207031 9.183594 C 22.234375 9.257812 22.226562 9.328125 22.183594 9.394531 C 22.136719 9.460938 22.074219 9.496094 21.996094 9.496094 Z M 21.996094 9.496094 " fill-opacity="1" fill-rule="nonzero"/><path fill="#29263b" d="M 15.113281 10.746094 C 14.855469 10.828125 14.78125 11.316406 14.949219 11.835938 C 15.113281 12.351562 15.457031 12.707031 15.714844 12.621094 C 15.976562 12.539062 16.050781 12.050781 15.882812 11.53125 C 15.71875 11.015625 15.371094 10.660156 15.113281 10.746094 Z M 15.113281 10.746094 " fill-opacity="1" fill-rule="evenodd"/><path fill="#29263b" d="M 13.320312 18.144531 C 13.292969 18.144531 13.269531 18.132812 13.25 18.113281 C 12.808594 17.644531 12.265625 17.476562 11.597656 17.605469 C 11.535156 17.617188 11.5 17.59375 11.484375 17.53125 C 11.472656 17.46875 11.5 17.429688 11.5625 17.417969 C 12.289062 17.28125 12.902344 17.472656 13.386719 17.984375 C 13.417969 18.015625 13.421875 18.046875 13.40625 18.085938 C 13.390625 18.125 13.359375 18.144531 13.320312 18.144531 Z M 13.320312 18.144531 " fill-opacity="1" fill-rule="nonzero"/><path fill="#29263b" d="M 21.382812 9.71875 C 21.144531 9.777344 21.054688 10.226562 21.179688 10.722656 C 21.304688 11.214844 21.597656 11.566406 21.835938 11.503906 C 22.074219 11.445312 22.167969 10.996094 22.042969 10.5 C 21.917969 10.007812 21.621094 9.65625 21.382812 9.71875 Z M 21.382812 9.71875 " fill-opacity="1" fill-rule="evenodd"/><path fill="#29263b" d="M 22.253906 23.027344 C 22.222656 23.027344 22.195312 23.011719 22.175781 22.984375 C 22.15625 22.957031 22.15625 22.925781 22.167969 22.894531 C 22.234375 22.71875 22.351562 22.59375 22.527344 22.523438 C 22.792969 22.410156 23.15625 22.441406 23.582031 22.617188 C 23.640625 22.640625 23.65625 22.683594 23.632812 22.742188 C 23.609375 22.800781 23.566406 22.816406 23.507812 22.792969 C 23.136719 22.640625 22.816406 22.605469 22.597656 22.699219 C 22.476562 22.75 22.390625 22.839844 22.34375 22.964844 C 22.324219 23.007812 22.296875 23.027344 22.253906 23.027344 Z M 22.253906 23.027344 " fill-opacity="1" fill-rule="nonzero"/><path fill="#29263b" d="M 23.523438 24.449219 C 23.496094 24.449219 23.472656 24.4375 23.453125 24.417969 C 23.238281 24.199219 23.132812 23.933594 23.136719 23.625 C 23.136719 23.566406 23.171875 23.535156 23.234375 23.535156 C 23.296875 23.535156 23.328125 23.570312 23.324219 23.632812 C 23.324219 23.886719 23.410156 24.105469 23.589844 24.289062 C 23.617188 24.320312 23.625 24.351562 23.609375 24.390625 C 23.59375 24.429688 23.5625 24.449219 23.519531 24.449219 Z M 23.523438 24.449219 " fill-opacity="1" fill-rule="nonzero"/><path fill="#29263b" d="M 23.671875 21.941406 C 23.65625 21.941406 23.644531 21.9375 23.628906 21.929688 C 23.285156 21.753906 22.996094 21.6875 22.839844 21.742188 C 22.777344 21.765625 22.738281 21.746094 22.71875 21.683594 C 22.695312 21.625 22.714844 21.585938 22.777344 21.5625 C 23.042969 21.46875 23.433594 21.617188 23.714844 21.761719 C 23.757812 21.785156 23.777344 21.820312 23.765625 21.867188 C 23.753906 21.917969 23.722656 21.941406 23.671875 21.941406 Z M 23.671875 21.941406 " fill-opacity="1" fill-rule="nonzero"/><g clip-path="url(#b2ac50aebb)"><path fill="#e1b100" d="M 26.097656 2.472656 C 26.09375 1.203125 27.078125 0.0976562 29.28125 0.0546875 C 31.484375 0.0117188 32.957031 1.394531 32.691406 2.46875 C 32.347656 3.867188 29.953125 4.261719 29.992188 5.734375 C 30 5.960938 28.542969 5.941406 28.542969 5.714844 C 28.507812 4.246094 31.414062 3.535156 31.460938 2.441406 C 31.5 1.480469 30.71875 0.960938 29.292969 0.960938 C 28.304688 0.960938 27.472656 1.472656 27.398438 2.460938 C 27.386719 2.671875 26.097656 2.683594 26.097656 2.472656 Z M 26.097656 2.472656 " fill-opacity="1" fill-rule="evenodd"/></g><path fill="#e1b100" d="M 29.257812 6.433594 C 29.8125 6.433594 30.265625 6.734375 30.265625 7.101562 C 30.265625 7.472656 29.8125 7.769531 29.257812 7.769531 C 28.703125 7.769531 28.253906 7.472656 28.253906 7.101562 C 28.253906 6.734375 28.703125 6.433594 29.257812 6.433594 Z M 29.257812 6.433594 " fill-opacity="1" fill-rule="evenodd"/></svg>