<svg xmlns="http://www.w3.org/2000/svg" xmlns:xlink="http://www.w3.org/1999/xlink" width="50" zoomAndPan="magnify" viewBox="0 0 37.5 37.499999" height="50" preserveAspectRatio="xMidYMid meet" version="1.0"><defs><clipPath id="3cbd86578a"><path d="M 0 19 L 33 19 L 33 36.75 L 0 36.75 Z M 0 19 " clip-rule="nonzero"/></clipPath></defs><path fill="#f9fafb" d="M 24.816406 20.546875 C 24.867188 20.378906 24.960938 20.242188 25.097656 20.136719 C 25.238281 20.03125 25.394531 19.976562 25.570312 19.972656 L 26.105469 19.972656 C 26.316406 18.90625 26.316406 17.84375 26.105469 16.777344 L 25.570312 16.777344 C 25.394531 16.773438 25.238281 16.71875 25.097656 16.613281 C 24.960938 16.507812 24.867188 16.371094 24.816406 16.203125 C 24.695312 15.8125 24.539062 15.4375 24.351562 15.074219 C 24.265625 14.917969 24.234375 14.753906 24.257812 14.582031 C 24.28125 14.40625 24.355469 14.257812 24.476562 14.128906 L 24.859375 13.746094 C 24.253906 12.847656 23.503906 12.09375 22.609375 11.488281 L 22.226562 11.871094 C 22.101562 11.992188 21.953125 12.066406 21.777344 12.089844 C 21.605469 12.113281 21.441406 12.082031 21.289062 11.996094 C 20.925781 11.808594 20.550781 11.652344 20.164062 11.527344 C 19.996094 11.480469 19.859375 11.386719 19.753906 11.246094 C 19.648438 11.105469 19.59375 10.949219 19.589844 10.773438 L 19.589844 10.234375 C 18.53125 10.023438 17.46875 10.023438 16.410156 10.234375 L 16.410156 10.773438 C 16.40625 10.949219 16.351562 11.105469 16.246094 11.246094 C 16.140625 11.386719 16.003906 11.480469 15.835938 11.527344 C 15.449219 11.652344 15.074219 11.808594 14.710938 11.996094 C 14.558594 12.082031 14.394531 12.113281 14.222656 12.089844 C 14.046875 12.066406 13.898438 11.992188 13.773438 11.871094 L 13.390625 11.488281 C 12.496094 12.09375 11.746094 12.847656 11.140625 13.746094 L 11.523438 14.128906 C 11.644531 14.257812 11.71875 14.40625 11.742188 14.582031 C 11.765625 14.753906 11.734375 14.917969 11.648438 15.074219 C 11.460938 15.4375 11.304688 15.8125 11.183594 16.203125 C 11.132812 16.371094 11.039062 16.507812 10.902344 16.613281 C 10.761719 16.71875 10.605469 16.773438 10.429688 16.777344 L 9.894531 16.777344 C 9.683594 17.84375 9.683594 18.90625 9.894531 19.972656 L 10.429688 19.972656 C 10.605469 19.976562 10.761719 20.03125 10.902344 20.136719 C 11.039062 20.242188 11.132812 20.378906 11.183594 20.546875 C 11.304688 20.9375 11.460938 21.3125 11.648438 21.675781 C 11.734375 21.832031 11.765625 21.996094 11.742188 22.167969 C 11.71875 22.34375 11.644531 22.492188 11.523438 22.621094 L 11.140625 23.003906 C 11.746094 23.902344 12.496094 24.65625 13.390625 25.261719 L 13.773438 24.878906 C 13.898438 24.757812 14.046875 24.683594 14.222656 24.660156 C 14.394531 24.636719 14.558594 24.667969 14.710938 24.753906 C 15.074219 24.941406 15.449219 25.097656 15.835938 25.222656 C 16.003906 25.269531 16.140625 25.363281 16.246094 25.503906 C 16.351562 25.644531 16.40625 25.800781 16.410156 25.976562 L 16.410156 26.515625 C 17.46875 26.726562 18.53125 26.726562 19.589844 26.515625 L 19.589844 25.976562 C 19.59375 25.800781 19.648438 25.644531 19.753906 25.503906 C 19.859375 25.363281 19.996094 25.269531 20.164062 25.222656 C 20.550781 25.097656 20.925781 24.941406 21.289062 24.753906 C 21.441406 24.667969 21.605469 24.636719 21.777344 24.660156 C 21.953125 24.683594 22.101562 24.757812 22.226562 24.878906 L 22.609375 25.261719 C 23.503906 24.65625 24.253906 23.902344 24.859375 23.003906 L 24.476562 22.621094 C 24.355469 22.492188 24.28125 22.34375 24.257812 22.167969 C 24.234375 21.996094 24.265625 21.832031 24.351562 21.675781 C 24.539062 21.3125 24.695312 20.9375 24.816406 20.546875 Z M 18 22.523438 C 17.730469 22.523438 17.460938 22.496094 17.195312 22.445312 C 16.929688 22.390625 16.667969 22.3125 16.417969 22.207031 C 16.167969 22.101562 15.929688 21.976562 15.703125 21.824219 C 15.480469 21.671875 15.269531 21.5 15.078125 21.308594 C 14.886719 21.117188 14.714844 20.90625 14.566406 20.679688 C 14.414062 20.453125 14.289062 20.214844 14.183594 19.960938 C 14.078125 19.710938 14 19.453125 13.949219 19.183594 C 13.894531 18.917969 13.867188 18.648438 13.867188 18.375 C 13.867188 18.101562 13.894531 17.832031 13.949219 17.566406 C 14 17.296875 14.078125 17.039062 14.183594 16.789062 C 14.289062 16.535156 14.414062 16.296875 14.566406 16.070312 C 14.714844 15.84375 14.886719 15.632812 15.078125 15.441406 C 15.269531 15.25 15.480469 15.078125 15.703125 14.925781 C 15.929688 14.773438 16.167969 14.648438 16.417969 14.542969 C 16.667969 14.4375 16.929688 14.359375 17.195312 14.304688 C 17.460938 14.253906 17.730469 14.226562 18 14.226562 C 18.269531 14.226562 18.539062 14.253906 18.804688 14.304688 C 19.070312 14.359375 19.332031 14.4375 19.582031 14.542969 C 19.832031 14.648438 20.070312 14.773438 20.296875 14.925781 C 20.519531 15.078125 20.730469 15.25 20.921875 15.441406 C 21.113281 15.632812 21.285156 15.84375 21.433594 16.070312 C 21.585938 16.296875 21.710938 16.535156 21.816406 16.789062 C 21.921875 17.039062 22 17.296875 22.050781 17.566406 C 22.105469 17.832031 22.132812 18.101562 22.132812 18.375 C 22.132812 18.648438 22.105469 18.917969 22.050781 19.183594 C 22 19.453125 21.921875 19.710938 21.816406 19.960938 C 21.710938 20.214844 21.585938 20.453125 21.433594 20.679688 C 21.285156 20.90625 21.113281 21.117188 20.921875 21.308594 C 20.730469 21.5 20.519531 21.671875 20.296875 21.824219 C 20.070312 21.976562 19.832031 22.101562 19.582031 22.207031 C 19.332031 22.3125 19.070312 22.390625 18.804688 22.445312 C 18.539062 22.496094 18.269531 22.523438 18 22.523438 Z M 18 22.523438 " fill-opacity="1" fill-rule="nonzero"/><path fill="#f9fafb" d="M 12.035156 30.09375 C 12.40625 30.265625 12.789062 30.425781 13.171875 30.566406 L 13.574219 29.449219 C 13.222656 29.324219 12.871094 29.175781 12.53125 29.019531 Z M 12.035156 30.09375 " fill-opacity="1" fill-rule="nonzero"/><path fill="#f9fafb" d="M 9.902344 28.859375 C 10.238281 29.097656 10.589844 29.320312 10.941406 29.523438 L 11.53125 28.496094 C 11.207031 28.308594 10.886719 28.105469 10.578125 27.886719 Z M 9.902344 28.859375 " fill-opacity="1" fill-rule="nonzero"/><path fill="#f9fafb" d="M 9.679688 27.199219 C 9.390625 26.957031 9.113281 26.699219 8.847656 26.4375 L 8.015625 27.277344 C 8.304688 27.566406 8.609375 27.84375 8.925781 28.109375 Z M 9.679688 27.199219 " fill-opacity="1" fill-rule="nonzero"/><path fill="#f9fafb" d="M 8.082031 25.601562 C 7.839844 25.316406 7.605469 25.015625 7.390625 24.707031 L 6.425781 25.390625 C 6.664062 25.726562 6.917969 26.054688 7.179688 26.367188 Z M 8.082031 25.601562 " fill-opacity="1" fill-rule="nonzero"/><path fill="#f9fafb" d="M 6.78125 23.753906 C 6.589844 23.429688 6.414062 23.09375 6.253906 22.753906 L 5.1875 23.257812 C 5.363281 23.628906 5.554688 24 5.761719 24.351562 Z M 6.78125 23.753906 " fill-opacity="1" fill-rule="nonzero"/><path fill="#f9fafb" d="M 5.816406 21.707031 C 5.6875 21.355469 5.570312 20.992188 5.472656 20.628906 L 4.335938 20.941406 C 4.441406 21.339844 4.570312 21.734375 4.710938 22.121094 Z M 5.816406 21.707031 " fill-opacity="1" fill-rule="nonzero"/><path fill="#f9fafb" d="M 3.898438 18.511719 C 3.933594 18.921875 3.988281 19.332031 4.0625 19.738281 L 5.222656 19.527344 C 5.15625 19.15625 5.105469 18.777344 5.070312 18.402344 Z M 3.898438 18.511719 " fill-opacity="1" fill-rule="nonzero"/><path fill="#f9fafb" d="M 5.015625 17.269531 L 5.015625 17.191406 C 5.015625 16.335938 5.101562 15.488281 5.269531 14.648438 C 5.433594 13.808594 5.683594 12.992188 6.007812 12.203125 C 6.335938 11.414062 6.734375 10.660156 7.210938 9.949219 C 7.683594 9.238281 8.222656 8.582031 8.824219 7.976562 C 9.425781 7.371094 10.082031 6.828125 10.789062 6.355469 C 11.5 5.878906 12.246094 5.476562 13.035156 5.148438 C 13.820312 4.820312 14.632812 4.574219 15.46875 4.40625 C 16.304688 4.238281 17.148438 4.152344 18 4.152344 L 30.097656 4.152344 L 30.097656 7.117188 L 36 3.558594 L 30.097656 0.00390625 L 30.097656 2.96875 L 18 2.96875 C 17.070312 2.96875 16.148438 3.058594 15.238281 3.242188 C 14.328125 3.425781 13.441406 3.695312 12.582031 4.054688 C 11.722656 4.410156 10.90625 4.851562 10.136719 5.371094 C 9.363281 5.886719 8.648438 6.476562 7.988281 7.136719 C 7.332031 7.796875 6.746094 8.515625 6.226562 9.292969 C 5.710938 10.066406 5.273438 10.886719 4.917969 11.75 C 4.5625 12.613281 4.292969 13.5 4.109375 14.417969 C 3.929688 15.332031 3.835938 16.257812 3.835938 17.191406 L 3.835938 17.28125 Z M 5.015625 17.269531 " fill-opacity="1" fill-rule="nonzero"/><g clip-path="url(#3cbd86578a)"><path fill="#f9fafb" d="M 5.902344 33.78125 L 18 33.78125 C 18.929688 33.78125 19.851562 33.691406 20.761719 33.507812 C 21.671875 33.324219 22.558594 33.054688 23.417969 32.695312 C 24.277344 32.339844 25.09375 31.898438 25.863281 31.378906 C 26.636719 30.863281 27.351562 30.273438 28.011719 29.613281 C 28.667969 28.953125 29.253906 28.234375 29.773438 27.457031 C 30.289062 26.683594 30.726562 25.863281 31.082031 25 C 31.4375 24.136719 31.707031 23.25 31.890625 22.332031 C 32.070312 21.417969 32.164062 20.492188 32.164062 19.558594 L 32.164062 19.46875 L 30.984375 19.480469 L 30.984375 19.558594 C 30.984375 20.414062 30.898438 21.261719 30.730469 22.101562 C 30.566406 22.941406 30.316406 23.757812 29.992188 24.546875 C 29.664062 25.335938 29.265625 26.089844 28.789062 26.800781 C 28.316406 27.511719 27.777344 28.167969 27.175781 28.773438 C 26.574219 29.378906 25.917969 29.921875 25.210938 30.394531 C 24.5 30.871094 23.753906 31.273438 22.964844 31.601562 C 22.179688 31.929688 21.367188 32.175781 20.53125 32.34375 C 19.695312 32.511719 18.851562 32.597656 18 32.597656 L 5.902344 32.597656 L 5.902344 29.632812 L 0 33.191406 L 5.902344 36.746094 Z M 5.902344 33.78125 " fill-opacity="1" fill-rule="nonzero"/></g><path fill="#f9fafb" d="M 32.101562 18.238281 C 32.066406 17.828125 32.011719 17.417969 31.9375 17.011719 L 30.777344 17.222656 C 30.84375 17.59375 30.894531 17.972656 30.929688 18.347656 Z M 32.101562 18.238281 " fill-opacity="1" fill-rule="nonzero"/><path fill="#f9fafb" d="M 31.664062 15.808594 C 31.558594 15.410156 31.429688 15.015625 31.289062 14.628906 L 30.183594 15.042969 C 30.3125 15.394531 30.429688 15.757812 30.527344 16.121094 Z M 31.664062 15.808594 " fill-opacity="1" fill-rule="nonzero"/><path fill="#f9fafb" d="M 30.8125 13.492188 C 30.636719 13.121094 30.445312 12.75 30.238281 12.398438 L 29.21875 12.996094 C 29.410156 13.320312 29.585938 13.65625 29.746094 13.996094 Z M 30.8125 13.492188 " fill-opacity="1" fill-rule="nonzero"/><path fill="#f9fafb" d="M 29.574219 11.359375 C 29.335938 11.023438 29.082031 10.695312 28.820312 10.382812 L 27.917969 11.148438 C 28.160156 11.433594 28.394531 11.734375 28.609375 12.042969 Z M 29.574219 11.359375 " fill-opacity="1" fill-rule="nonzero"/><path fill="#f9fafb" d="M 26.320312 9.550781 C 26.609375 9.792969 26.886719 10.050781 27.152344 10.3125 L 27.984375 9.472656 C 27.695312 9.183594 27.390625 8.90625 27.074219 8.640625 Z M 26.320312 9.550781 " fill-opacity="1" fill-rule="nonzero"/><path fill="#f9fafb" d="M 26.097656 7.890625 C 25.761719 7.652344 25.410156 7.429688 25.058594 7.226562 L 24.46875 8.253906 C 24.792969 8.441406 25.113281 8.644531 25.421875 8.863281 Z M 26.097656 7.890625 " fill-opacity="1" fill-rule="nonzero"/><path fill="#f9fafb" d="M 23.964844 6.65625 C 23.59375 6.484375 23.210938 6.324219 22.828125 6.183594 L 22.425781 7.300781 C 22.777344 7.425781 23.128906 7.574219 23.46875 7.730469 Z M 23.964844 6.65625 " fill-opacity="1" fill-rule="nonzero"/></svg>