<svg xmlns="http://www.w3.org/2000/svg" xmlns:xlink="http://www.w3.org/1999/xlink" width="414" zoomAndPan="magnify" viewBox="0 0 310.5 671.999985" height="896" preserveAspectRatio="xMidYMid meet" version="1.0"><defs><clipPath id="aedf5f9988"><path d="M 125 84 L 310 84 L 310 671.457031 L 125 671.457031 Z M 125 84 " clip-rule="nonzero"/></clipPath><clipPath id="5ea528ab1e"><path d="M 0 151 L 310 151 L 310 601 L 0 601 Z M 0 151 " clip-rule="nonzero"/></clipPath><clipPath id="3b8a63384e"><path d="M 0 0.539062 L 310 0.539062 L 310 449 L 0 449 Z M 0 0.539062 " clip-rule="nonzero"/></clipPath><clipPath id="025fa5dc65"><path d="M 0 510 L 168 510 L 168 671.457031 L 0 671.457031 Z M 0 510 " clip-rule="nonzero"/></clipPath><clipPath id="fc42c0f32d"><path d="M 147 256 L 310 256 L 310 671.457031 L 147 671.457031 Z M 147 256 " clip-rule="nonzero"/></clipPath><clipPath id="c77e94d3ba"><path d="M 0 398 L 280 398 L 280 671.457031 L 0 671.457031 Z M 0 398 " clip-rule="nonzero"/></clipPath></defs><g clip-path="url(#aedf5f9988)"><path fill="#1b75bc" d="M 819.703125 687.230469 L 636.957031 687.230469 L 391.230469 441.535156 L 222.535156 272.875 L 125.636719 175.988281 L 155.152344 146.496094 L 217.027344 84.609375 Z M 819.703125 687.230469 " fill-opacity="1" fill-rule="nonzero"/></g><g clip-path="url(#5ea528ab1e)"><path fill="#262262" d="M 348.046875 508.855469 L 328.144531 528.753906 L 256.65625 600.234375 L -9.761719 333.847656 L -9.761719 151.105469 L 167.285156 328.117188 Z M 348.046875 508.855469 " fill-opacity="1" fill-rule="nonzero"/></g><g clip-path="url(#3b8a63384e)"><path fill="#262262" d="M 420.726562 412.039062 L 391.230469 441.535156 L 384.015625 448.746094 L 215.320312 280.089844 L -9.761719 55.03125 L -9.761719 -18.402344 Z M 420.726562 412.039062 " fill-opacity="1" fill-rule="nonzero"/></g><g clip-path="url(#025fa5dc65)"><path fill="#1b75bc" d="M 167.390625 687.230469 L 93.949219 687.230469 L -9.761719 583.53125 L -9.761719 510.097656 Z M 167.390625 687.230469 " fill-opacity="1" fill-rule="nonzero"/></g><g clip-path="url(#fc42c0f32d)"><path fill="#00aeef" d="M 669.40625 687.230469 L 486.660156 687.230469 L 328.144531 528.753906 L 147.386719 348.015625 L 167.285156 328.117188 L 215.320312 280.089844 L 222.535156 272.875 L 238.777344 256.636719 L 407.453125 425.3125 Z M 669.40625 687.230469 " fill-opacity="1" fill-rule="nonzero"/></g><g clip-path="url(#c77e94d3ba)"><path fill="#00aeef" d="M 279.199219 687.230469 L 142.535156 687.230469 L -9.761719 534.949219 L -9.761719 398.285156 Z M 279.199219 687.230469 " fill-opacity="1" fill-rule="nonzero"/></g></svg>