<svg xmlns="http://www.w3.org/2000/svg" xmlns:xlink="http://www.w3.org/1999/xlink" width="50" zoomAndPan="magnify" viewBox="0 0 37.5 37.499999" height="50" preserveAspectRatio="xMidYMid meet" version="1.0"><defs><clipPath id="ee783fe125"><path d="M 1.675781 24.78125 L 37.007812 24.78125 L 37.007812 29.507812 L 1.675781 29.507812 Z M 1.675781 24.78125 " clip-rule="nonzero"/></clipPath><clipPath id="7f23f587be"><path d="M 25 7.757812 L 32 7.757812 L 32 14 L 25 14 Z M 25 7.757812 " clip-rule="nonzero"/></clipPath></defs><path fill="#cf785d" d="M 13.648438 16.878906 C 13.648438 16.878906 13.648438 16.878906 13.644531 16.878906 C 12.3125 16.753906 11.683594 15.847656 11.476562 15.550781 C 11.449219 15.511719 11.421875 15.476562 11.414062 15.46875 C 11.394531 15.457031 11.390625 15.433594 11.398438 15.414062 C 11.410156 15.394531 11.4375 15.386719 11.457031 15.398438 C 11.476562 15.410156 11.492188 15.433594 11.542969 15.503906 C 11.742188 15.792969 12.355469 16.675781 13.652344 16.800781 C 13.675781 16.804688 13.691406 16.824219 13.691406 16.84375 C 13.6875 16.863281 13.671875 16.878906 13.648438 16.878906 " fill-opacity="1" fill-rule="nonzero"/><path fill="#faac82" d="M 10.820312 17.214844 C 10.730469 16.871094 10.636719 16.570312 10.578125 16.265625 C 10.53125 16.003906 10.554688 15.738281 10.75 15.519531 C 10.785156 15.480469 10.800781 15.414062 10.804688 15.359375 C 10.816406 15.230469 10.863281 15.125 10.933594 15.015625 C 10.976562 14.953125 10.976562 14.851562 10.976562 14.769531 C 10.972656 14.609375 10.953125 14.449219 10.945312 14.289062 C 10.941406 14.15625 10.972656 14.03125 11.113281 13.980469 C 11.242188 13.933594 11.359375 13.984375 11.457031 14.078125 C 11.488281 14.105469 11.515625 14.140625 11.539062 14.167969 C 11.84375 14.125 11.890625 14.152344 11.976562 14.4375 C 12.011719 14.550781 12.050781 14.648438 12.179688 14.703125 C 12.253906 14.730469 12.308594 14.816406 12.351562 14.890625 C 12.410156 14.992188 12.445312 15.105469 12.496094 15.222656 C 12.53125 15.214844 12.558594 15.210938 12.582031 15.199219 C 12.78125 15.097656 12.835938 15.109375 12.96875 15.28125 C 13 15.320312 13.039062 15.371094 13.082031 15.375 C 13.234375 15.402344 13.300781 15.503906 13.34375 15.640625 C 13.355469 15.671875 13.382812 15.699219 13.414062 15.746094 C 13.457031 15.699219 13.496094 15.667969 13.523438 15.632812 C 13.554688 15.589844 13.574219 15.542969 13.601562 15.5 C 13.648438 15.4375 13.703125 15.386719 13.789062 15.410156 C 13.875 15.441406 13.886719 15.515625 13.878906 15.589844 C 13.867188 15.671875 13.84375 15.75 13.828125 15.828125 C 13.816406 15.894531 13.804688 15.960938 13.792969 16.046875 C 14.042969 15.929688 14.101562 15.941406 14.285156 16.109375 C 14.332031 16.15625 14.382812 16.199219 14.421875 16.253906 C 14.683594 16.582031 14.820312 16.945312 14.628906 17.355469 C 14.339844 17.976562 13.945312 18.53125 13.402344 18.972656 C 13.085938 19.230469 12.699219 19.292969 12.292969 19.25 C 12.121094 19.230469 11.964844 19.152344 11.839844 19.035156 C 11.664062 18.871094 11.492188 18.703125 11.328125 18.523438 C 11.179688 18.359375 11.046875 18.183594 10.910156 18.011719 C 10.855469 17.933594 10.800781 17.855469 10.761719 17.769531 C 10.671875 17.5625 10.636719 17.359375 10.820312 17.214844 " fill-opacity="1" fill-rule="nonzero"/><g clip-path="url(#ee783fe125)"><path fill="#f0ded4" d="M 37.089844 27.398438 C 37.675781 26.785156 37.625 25.847656 36.652344 25.488281 C 33.351562 24.28125 26.542969 25.253906 19.871094 25.28125 C 14.710938 25.300781 8.253906 24.882812 3.585938 24.785156 C 2.648438 24.765625 1.15625 25.492188 1.863281 26.890625 C 1.988281 27.136719 2.523438 27.714844 2.78125 27.828125 C 4.933594 28.785156 7.433594 28.867188 8.117188 28.914062 C 10.625 29.085938 13.175781 29.136719 15.671875 29.433594 C 17.902344 29.703125 25.117188 29.128906 32.828125 29.101562 C 34.371094 29.09375 35.871094 28.667969 37.089844 27.398438 " fill-opacity="1" fill-rule="nonzero"/></g><path fill="#faac82" d="M 9.707031 16.402344 C 9.691406 16.171875 9.652344 15.945312 9.578125 15.726562 C 9.484375 15.441406 9.300781 15.269531 8.988281 15.285156 C 8.914062 15.289062 8.835938 15.296875 8.761719 15.308594 C 7.578125 15.523438 6.496094 16.652344 6.101562 17.667969 C 5.765625 18.542969 5.738281 19.835938 5.605469 20.761719 C 5.429688 21.96875 5.152344 22.832031 5.234375 24.050781 C 5.292969 24.949219 5.867188 26.683594 7.144531 26.171875 C 7.5625 26.003906 7.820312 25.757812 7.941406 25.359375 C 8.410156 23.859375 8.335938 22.003906 8.601562 20.453125 C 8.800781 19.273438 9.492188 18.371094 9.667969 17.191406 C 9.707031 16.929688 9.722656 16.664062 9.707031 16.402344 " fill-opacity="1" fill-rule="nonzero"/><path fill="#faac82" d="M 19.335938 24.683594 C 19.324219 23.789062 19.449219 22.898438 19.375 22 C 19.304688 21.152344 19.210938 20.3125 19.039062 19.476562 C 18.914062 18.859375 18.757812 18.257812 18.605469 17.648438 C 18.40625 16.851562 18.132812 16.039062 17.398438 15.550781 C 17.058594 15.324219 16.632812 15.222656 16.222656 15.261719 C 15.957031 15.289062 15.226562 15.417969 15.566406 15.816406 C 15.566406 15.835938 15.570312 15.859375 15.578125 15.878906 C 15.988281 17.316406 16.089844 18.851562 16.300781 20.324219 C 16.496094 21.722656 16.777344 23.078125 17.117188 24.445312 C 17.246094 24.957031 17.523438 25.660156 18.074219 25.859375 C 18.859375 26.140625 19.347656 25.347656 19.335938 24.683594 " fill-opacity="1" fill-rule="nonzero"/><path fill="#faac82" d="M 16.300781 18.105469 C 16.300781 17.902344 16.277344 17.699219 16.226562 17.503906 C 16.199219 17.324219 16.160156 17.148438 16.113281 16.972656 C 16.148438 16.910156 16.167969 16.835938 16.160156 16.761719 C 16.125 16.378906 15.933594 16.042969 15.65625 15.792969 C 15.628906 15.742188 15.601562 15.695312 15.574219 15.644531 C 15.519531 15.542969 15.410156 15.492188 15.292969 15.480469 C 15.195312 15.398438 15.089844 15.324219 14.972656 15.257812 C 14.445312 14.96875 13.816406 14.898438 13.226562 14.851562 C 12.503906 14.796875 11.773438 14.792969 11.050781 14.851562 C 10.226562 14.914062 9.410156 15.058594 8.609375 15.265625 C 8.230469 15.359375 8.300781 15.851562 8.585938 16 C 8.527344 16.121094 8.492188 16.261719 8.484375 16.40625 C 8.480469 16.464844 8.480469 16.523438 8.480469 16.582031 C 8.480469 16.59375 8.476562 16.605469 8.472656 16.617188 C 8.25 17.253906 8.261719 17.953125 8.507812 18.574219 C 8.480469 19.230469 8.511719 19.890625 8.597656 20.539062 C 8.523438 20.621094 8.484375 20.726562 8.507812 20.835938 C 8.601562 21.265625 8.695312 21.699219 8.789062 22.132812 C 8.789062 22.136719 8.789062 22.136719 8.789062 22.140625 C 8.792969 22.148438 8.792969 22.160156 8.796875 22.167969 C 8.929688 22.785156 9.066406 23.402344 9.199219 24.019531 C 9.214844 24.078125 9.234375 24.136719 9.265625 24.183594 C 9.273438 24.21875 9.28125 24.253906 9.292969 24.289062 C 9.332031 24.472656 9.457031 24.628906 9.644531 24.648438 C 9.714844 24.847656 9.78125 25.046875 9.847656 25.242188 C 9.929688 25.476562 10.199219 25.542969 10.398438 25.460938 C 11.523438 25.953125 12.828125 25.828125 14.019531 25.644531 C 14.675781 25.546875 15.394531 25.453125 15.894531 24.976562 C 16.230469 24.65625 16.410156 24.15625 16.3125 23.710938 C 16.328125 23.664062 16.332031 23.613281 16.332031 23.566406 L 16.328125 22.441406 C 16.328125 22.394531 16.316406 22.351562 16.296875 22.308594 C 16.308594 21.785156 16.292969 21.261719 16.246094 20.738281 C 16.292969 20.183594 16.335938 19.628906 16.378906 19.074219 C 16.382812 19.003906 16.375 18.9375 16.355469 18.875 C 16.367188 18.722656 16.378906 18.574219 16.386719 18.421875 C 16.394531 18.304688 16.367188 18.191406 16.300781 18.105469 " fill-opacity="1" fill-rule="nonzero"/><path fill="#ad505b" d="M 6.644531 19.84375 C 7.007812 20.007812 7.417969 20.070312 7.816406 20.105469 C 8.109375 20.132812 8.402344 20.140625 8.695312 20.148438 C 8.925781 19.074219 9.316406 18.027344 9.476562 16.945312 C 9.515625 16.679688 9.640625 16.625 9.621094 16.355469 C 9.609375 16.121094 9.566406 15.890625 9.492188 15.664062 C 9.398438 15.371094 9.207031 15.195312 8.890625 15.210938 C 8.8125 15.214844 8.730469 15.222656 8.65625 15.238281 C 7.441406 15.457031 6.464844 16.628906 6.066406 17.671875 C 5.882812 18.140625 5.96875 18.960938 5.902344 19.550781 C 6.207031 19.734375 6.320312 19.695312 6.644531 19.84375 " fill-opacity="1" fill-rule="nonzero"/><path fill="#ad505b" d="M 15.488281 15.792969 C 15.867188 17.113281 15.996094 18.515625 16.171875 19.886719 C 16.792969 19.894531 17.449219 19.785156 18.019531 19.601562 C 18.359375 19.488281 18.707031 19.339844 19.066406 19.238281 C 18.949219 18.707031 18.8125 18.183594 18.679688 17.65625 C 18.46875 16.816406 18.179688 15.957031 17.410156 15.445312 C 17.046875 15.203125 16.601562 15.101562 16.167969 15.140625 C 15.886719 15.167969 15.121094 15.304688 15.476562 15.722656 C 15.476562 15.746094 15.480469 15.769531 15.488281 15.792969 " fill-opacity="1" fill-rule="nonzero"/><path fill="#ffeadc" d="M 16.042969 18.292969 C 16.046875 18.089844 16.019531 17.894531 15.972656 17.703125 C 15.945312 17.527344 15.90625 17.355469 15.859375 17.1875 C 15.894531 17.125 15.914062 17.054688 15.90625 16.976562 C 15.871094 16.605469 15.679688 16.28125 15.40625 16.03125 C 15.378906 15.984375 15.351562 15.9375 15.324219 15.890625 C 15.269531 15.789062 15.164062 15.738281 15.050781 15.726562 C 14.953125 15.648438 14.847656 15.574219 14.730469 15.511719 C 14.542969 15.410156 13.992188 15.566406 13.785156 15.511719 C 13.746094 16.410156 13.441406 17.792969 13.097656 18.449219 C 12.65625 19.277344 12.371094 21.320312 11.609375 18.464844 C 11.402344 17.695312 10.953125 15.917969 10.710938 15.335938 C 10.675781 15.253906 10.683594 15.183594 10.710938 15.128906 C 9.945312 15.195312 9.191406 15.328125 8.449219 15.519531 C 8.078125 15.613281 8.144531 16.089844 8.425781 16.234375 C 8.367188 16.355469 8.335938 16.492188 8.328125 16.632812 C 8.324219 16.691406 8.324219 16.746094 8.324219 16.804688 C 8.324219 16.816406 8.320312 16.828125 8.316406 16.839844 C 8.09375 17.460938 8.109375 18.140625 8.351562 18.746094 C 8.324219 19.390625 8.351562 20.03125 8.441406 20.667969 C 8.367188 20.746094 8.324219 20.851562 8.347656 20.957031 C 8.441406 21.378906 8.535156 21.800781 8.628906 22.222656 C 8.628906 22.222656 8.628906 22.226562 8.628906 22.230469 C 8.632812 22.238281 8.632812 22.246094 8.636719 22.253906 C 8.769531 22.859375 8.902344 23.460938 9.035156 24.0625 C 9.046875 24.121094 9.070312 24.175781 9.097656 24.222656 C 9.109375 24.257812 9.117188 24.292969 9.125 24.328125 C 9.164062 24.507812 9.289062 24.65625 9.472656 24.679688 C 9.539062 24.871094 9.609375 25.0625 9.675781 25.257812 C 9.753906 25.484375 10.019531 25.550781 10.21875 25.46875 C 11.328125 25.949219 12.617188 25.828125 13.792969 25.652344 C 14.441406 25.554688 15.148438 25.464844 15.644531 24.996094 C 15.972656 24.683594 16.148438 24.199219 16.054688 23.761719 C 16.070312 23.714844 16.074219 23.667969 16.074219 23.617188 L 16.070312 22.523438 C 16.070312 22.476562 16.058594 22.433594 16.039062 22.394531 C 16.050781 21.882812 16.035156 21.371094 15.992188 20.863281 C 16.035156 20.320312 16.078125 19.777344 16.121094 19.234375 C 16.125 19.167969 16.117188 19.101562 16.097656 19.042969 C 16.109375 18.894531 16.117188 18.746094 16.128906 18.601562 C 16.136719 18.488281 16.109375 18.375 16.042969 18.292969 " fill-opacity="1" fill-rule="nonzero"/><path fill="#9ea0a8" d="M 11.035156 14.992188 C 11.019531 14.949219 11.003906 14.902344 10.988281 14.859375 C 10.238281 14.886719 9.496094 14.976562 8.757812 15.121094 C 8.375 15.195312 8.414062 15.6875 8.691406 15.851562 C 8.75 15.890625 8.46875 16.75 8.449219 16.835938 C 8.40625 16.996094 8.355469 17.164062 8.335938 17.332031 C 8.3125 17.507812 8.320312 17.683594 8.335938 17.859375 C 8.355469 18.023438 8.472656 18.261719 8.457031 18.417969 C 8.382812 19.132812 8.53125 19.359375 8.367188 20.046875 C 8.320312 20.246094 8.4375 25.046875 8.5 25.464844 C 8.550781 25.824219 11.242188 25.980469 11.238281 25.945312 C 11.179688 25.242188 11.308594 17.902344 11.035156 14.992188 " fill-opacity="1" fill-rule="nonzero"/><path fill="#9ea0a8" d="M 16.292969 17.5 C 16.246094 17.324219 16.1875 17.148438 16.113281 16.972656 C 16.171875 16.910156 16.199219 16.835938 16.191406 16.761719 C 16.132812 16.378906 15.828125 16.046875 15.394531 15.792969 C 15.351562 15.742188 15.308594 15.695312 15.265625 15.644531 C 15.175781 15.546875 15.007812 15.492188 14.824219 15.480469 C 14.671875 15.398438 14.5 15.324219 14.316406 15.261719 C 14.160156 15.207031 14 15.160156 13.835938 15.121094 C 13.835938 15.125 15.53125 15.144531 14.722656 15.140625 C 14.148438 15.136719 14.015625 16.691406 14.011719 17.160156 C 13.996094 17.785156 13.488281 18.425781 13.507812 19.046875 C 13.585938 21.484375 13.425781 23.332031 13.433594 25.722656 C 13.976562 25.625 15.335938 25.230469 15.75 24.976562 C 16.28125 24.65625 16.335938 24.105469 16.335938 24.054688 C 16.335938 24.054688 16.4375 21.355469 16.367188 20.832031 C 16.4375 20.277344 16.371094 17.699219 16.292969 17.5 " fill-opacity="1" fill-rule="nonzero"/><path fill="#9ea0a8" d="M 9.867188 15.699219 C 9.851562 15.460938 9.808594 15.230469 9.734375 15.003906 C 9.640625 14.710938 9.449219 14.53125 9.125 14.546875 C 9.046875 14.550781 8.96875 14.558594 8.890625 14.574219 C 7.667969 14.792969 6.558594 15.949219 6.15625 16.996094 C 5.808594 17.898438 5.78125 19.230469 5.640625 20.1875 C 5.460938 21.4375 5.175781 22.328125 5.257812 23.585938 C 5.320312 24.511719 5.914062 26.300781 7.230469 25.777344 C 7.664062 25.601562 7.929688 25.347656 8.054688 24.9375 C 8.539062 23.386719 8.460938 21.472656 8.734375 19.871094 C 8.941406 18.652344 9.648438 17.734375 9.828125 16.515625 C 9.867188 16.246094 9.882812 15.972656 9.867188 15.699219 " fill-opacity="1" fill-rule="nonzero"/><path fill="#faac82" d="M 31.746094 14.753906 C 31.726562 14.671875 31.664062 14.605469 31.554688 14.609375 C 31.285156 14.617188 30.347656 14.5625 30.148438 14.546875 C 30.121094 14.542969 26.886719 14.414062 25.3125 14.707031 C 25.28125 14.695312 24.566406 14.773438 24.46875 15.097656 C 24.285156 15.714844 24.453125 16.390625 24.839844 16.894531 C 25.261719 17.441406 25.875 17.769531 26.535156 17.953125 C 27.804688 18.308594 29.339844 18.324219 30.4375 17.507812 C 30.984375 17.101562 31.308594 16.566406 31.558594 15.96875 C 31.644531 15.960938 31.90625 14.804688 31.746094 14.753906 " fill-opacity="1" fill-rule="nonzero"/><path fill="#ffeadc" d="M 25.8125 14.640625 C 25.8125 14.640625 26.09375 16.070312 26.816406 16.632812 C 27.34375 17.042969 27.863281 17.164062 28.464844 17.09375 C 29.0625 17.023438 29.976562 16.503906 30.347656 16.054688 C 30.859375 15.4375 30.933594 14.992188 30.933594 14.992188 C 30.933594 14.992188 31.535156 16.402344 31.132812 17.097656 C 30.730469 17.792969 29.929688 18.425781 28.863281 18.457031 C 27.796875 18.488281 26.699219 18.625 25.96875 17.804688 C 25.234375 16.984375 24.945312 15.261719 24.957031 15.015625 C 24.96875 14.765625 24.957031 14.707031 24.957031 14.707031 L 25.8125 14.640625 " fill-opacity="1" fill-rule="nonzero"/><path fill="#dd6a4b" d="M 23.773438 14.878906 C 22.925781 15.007812 21.925781 15.4375 21.546875 16.160156 C 20.070312 18.976562 20.460938 24.71875 20.890625 25.554688 C 21.039062 25.710938 20.84375 25.417969 21.023438 25.503906 C 21.332031 25.648438 22.78125 25.429688 22.976562 25.308594 C 23.238281 25.148438 23.546875 24.96875 23.710938 24.699219 C 23.820312 24.515625 24.03125 24.210938 24.050781 23.988281 C 24.011719 23.972656 23.988281 23.976562 23.941406 23.953125 C 23.824219 23.890625 23.792969 23.90625 23.734375 23.796875 C 23.671875 23.6875 23.683594 23.515625 23.648438 23.359375 C 23.636719 23.292969 23.632812 23.214844 23.625 23.117188 C 23.617188 23.042969 23.621094 22.933594 23.609375 22.863281 C 23.597656 22.761719 23.585938 22.660156 23.578125 22.554688 C 23.566406 22.351562 23.566406 22.148438 23.574219 21.945312 C 23.59375 21.542969 23.648438 21.144531 23.714844 20.75 C 23.738281 20.605469 23.761719 20.460938 23.792969 20.320312 C 23.808594 20.25 23.828125 20.175781 23.851562 20.105469 C 23.867188 20.050781 23.78125 19.960938 23.777344 19.90625 C 23.777344 19.898438 23.777344 19.886719 23.777344 19.878906 C 23.761719 19.394531 23.953125 18.929688 24.0625 18.464844 C 24.089844 18.25 24.117188 18.03125 24.148438 17.8125 C 24.148438 17.808594 24.148438 17.804688 24.148438 17.796875 C 24.136719 17.550781 24.125 17.355469 24.226562 17.121094 C 24.253906 17.0625 24.292969 17.019531 24.335938 16.996094 C 24.570312 16.230469 24.902344 15.398438 25.097656 14.738281 C 25.132812 14.628906 24.238281 14.804688 23.773438 14.878906 " fill-opacity="1" fill-rule="nonzero"/><path fill="#dd6a4b" d="M 36.335938 24.371094 C 36.371094 23.988281 36.40625 23.589844 36.390625 23.207031 C 36.316406 21.554688 36.699219 17.945312 35.007812 15.90625 C 34.441406 15.21875 32.871094 14.664062 31.832031 14.625 C 31.792969 14.621094 31.050781 14.582031 30.753906 14.582031 C 30.78125 14.609375 31.015625 15.1875 31.035156 15.226562 C 31.039062 15.234375 33.058594 18.671875 33.128906 19.503906 C 33.238281 20.742188 33.339844 23.042969 33.039062 24.167969 C 32.910156 24.664062 32.535156 25.0625 32.707031 25.554688 C 32.976562 26.332031 33.785156 26.753906 35.015625 26.566406 C 35.542969 26.5625 35.882812 26.128906 36.066406 25.6875 C 36.230469 25.296875 36.292969 24.875 36.328125 24.457031 C 36.332031 24.429688 36.335938 24.402344 36.335938 24.371094 " fill-opacity="1" fill-rule="nonzero"/><path fill="#dd6a4b" d="M 32.8125 24.664062 C 33.054688 20.679688 33.191406 20.675781 33.261719 18.867188 C 33.300781 17.910156 32.289062 16.882812 31.828125 16.03125 C 31.0625 14.617188 31.457031 14.617188 30.753906 14.574219 C 30.644531 14.566406 30.898438 15.925781 30.203125 16.960938 C 29.871094 17.453125 28.863281 17.921875 27.441406 17.78125 C 26.667969 17.703125 25.988281 17.183594 25.625 16.503906 C 25.292969 15.875 25.4375 14.683594 25.4375 14.683594 C 25.355469 14.683594 24.921875 14.71875 24.84375 14.722656 C 24.59375 15.640625 23.859375 16.804688 23.695312 17.742188 C 23.382812 19.554688 23.777344 19.90625 24.019531 22.546875 C 24.105469 23.5 24.191406 23.871094 24.234375 24.824219 C 24.246094 25.085938 23.988281 25.460938 23.996094 25.722656 C 24.011719 25.722656 24.03125 25.722656 24.046875 25.722656 C 26.714844 25.839844 31.289062 25.859375 31.453125 25.859375 C 31.625 25.855469 32.664062 27.125 32.8125 24.664062 " fill-opacity="1" fill-rule="nonzero"/><path fill="#faac82" d="M 30.902344 25.253906 C 30.957031 25.152344 33.476562 24.484375 29.070312 22.324219 C 28.882812 22.230469 28.648438 22.085938 28.625 22.003906 C 28.582031 21.871094 28.105469 19.617188 27.589844 19.195312 C 27.550781 19.160156 27.335938 19.183594 27.394531 19.390625 C 27.601562 20.117188 27.652344 20.558594 27.640625 20.558594 C 27.59375 20.566406 26.894531 19.921875 26.550781 19.667969 C 26.414062 19.570312 26.269531 19.472656 26.125 19.390625 C 25.953125 19.289062 25.660156 19.066406 25.515625 19.273438 C 25.4375 19.390625 25.667969 19.535156 25.695312 19.554688 C 26.234375 19.890625 26.53125 20.105469 26.917969 20.480469 C 26.917969 20.480469 26.894531 20.535156 26.867188 20.554688 C 26.828125 20.582031 26.417969 20.332031 26.371094 20.300781 C 26.003906 20.054688 25.410156 19.761719 25.003906 19.589844 C 24.839844 19.523438 24.636719 19.527344 24.625 19.707031 C 24.621094 19.792969 24.6875 19.863281 24.757812 19.910156 C 25.214844 20.199219 25.640625 20.242188 26.433594 20.917969 C 26.398438 20.953125 26.398438 20.953125 26.367188 20.992188 C 25.832031 20.660156 25.277344 20.453125 24.644531 20.253906 C 24.464844 20.195312 24.253906 20.4375 24.492188 20.566406 C 24.992188 20.832031 26.058594 21.246094 26.128906 21.285156 C 26.164062 21.308594 26.054688 21.410156 26.054688 21.410156 C 25.984375 21.390625 25.039062 21.054688 24.644531 20.988281 C 24.507812 20.996094 24.433594 21.15625 24.570312 21.238281 C 24.871094 21.425781 25.757812 21.683594 25.898438 21.839844 C 25.953125 21.902344 26.351562 22.382812 27.234375 22.824219 C 27.304688 22.859375 27.40625 22.953125 27.976562 23.375 C 28.132812 23.488281 28.273438 23.621094 28.382812 23.703125 C 28.363281 23.6875 30.859375 25.324219 30.902344 25.253906 " fill-opacity="1" fill-rule="nonzero"/><path fill="#ffeadc" d="M 29.613281 22.46875 C 29.464844 22.46875 29.316406 22.699219 29.132812 22.917969 C 28.953125 23.132812 28.855469 23.296875 28.695312 23.429688 C 28.53125 23.5625 28.335938 23.71875 28.394531 23.78125 C 28.628906 24.035156 29.652344 24.585938 29.652344 24.585938 C 29.652344 24.585938 30.074219 24.222656 30.3125 23.851562 C 30.554688 23.476562 30.640625 23.214844 30.640625 23.214844 C 30.640625 23.214844 29.726562 22.46875 29.613281 22.46875 " fill-opacity="1" fill-rule="nonzero"/><path fill="#dd6a4b" d="M 35.652344 24.878906 C 35.359375 24.527344 34.074219 24.1875 33.765625 23.820312 C 33.492188 23.730469 33.21875 23.648438 32.945312 23.574219 C 32.398438 23.421875 32.097656 23.414062 31.511719 23.257812 C 31.1875 23.171875 30.894531 23.058594 30.5625 22.992188 C 30.371094 22.953125 30.351562 23.417969 29.785156 23.90625 C 29.707031 23.972656 29.304688 24.371094 29.269531 24.453125 C 29.25 24.503906 29.585938 24.789062 30.148438 25.101562 C 30.960938 25.554688 31.71875 26.144531 32.640625 26.335938 C 35.878906 26.996094 35.671875 26.355469 36.035156 25.453125 C 36.136719 25.195312 35.828125 25.085938 35.652344 24.878906 " fill-opacity="1" fill-rule="nonzero"/><path fill="#b55136" d="M 29.683594 24.847656 C 29.679688 24.847656 29.671875 24.847656 29.667969 24.84375 C 29.59375 24.8125 29.550781 24.777344 29.445312 24.691406 C 29.414062 24.664062 29.375 24.632812 29.324219 24.59375 C 29.308594 24.582031 29.304688 24.554688 29.320312 24.539062 C 29.335938 24.519531 29.359375 24.519531 29.378906 24.53125 C 29.425781 24.570312 29.464844 24.601562 29.496094 24.628906 C 29.597656 24.710938 29.636719 24.742188 29.703125 24.769531 C 29.722656 24.78125 29.730469 24.804688 29.722656 24.824219 C 29.714844 24.839844 29.699219 24.847656 29.683594 24.847656 " fill-opacity="1" fill-rule="nonzero"/><path fill="#b55136" d="M 33.292969 23.949219 Z M 33.328125 23.96875 C 33.3125 23.96875 33.289062 23.964844 33.253906 23.953125 C 33.1875 23.9375 33.066406 23.902344 32.851562 23.855469 L 32.804688 23.84375 C 32.382812 23.75 31.390625 23.53125 30.523438 23.050781 C 30.503906 23.039062 30.496094 23.015625 30.507812 22.996094 C 30.519531 22.976562 30.542969 22.972656 30.5625 22.980469 C 31.421875 23.457031 32.402344 23.671875 32.824219 23.765625 L 32.867188 23.777344 C 33.042969 23.816406 33.15625 23.84375 33.226562 23.863281 C 33.214844 23.835938 33.203125 23.804688 33.203125 23.769531 C 33.191406 20.957031 33.082031 19.726562 33.0625 19.507812 C 33.058594 19.488281 33.074219 19.46875 33.097656 19.464844 C 33.121094 19.460938 33.140625 19.480469 33.140625 19.5 C 33.164062 19.71875 33.273438 20.953125 33.285156 23.769531 C 33.285156 23.828125 33.324219 23.867188 33.34375 23.886719 C 33.355469 23.898438 33.378906 23.921875 33.363281 23.949219 C 33.351562 23.964844 33.34375 23.96875 33.328125 23.96875 " fill-opacity="1" fill-rule="nonzero"/><path fill="#ffeadc" d="M 33.085938 22.769531 L 32.191406 22.773438 L 32.144531 22.773438 L 31.253906 22.777344 C 30.949219 22.777344 30.703125 23.023438 30.707031 23.324219 L 31.167969 26.46875 C 31.167969 26.507812 31.25 26.734375 31.265625 26.765625 C 31.34375 26.929688 31.484375 27.011719 31.753906 27.011719 L 32.164062 27.011719 L 32.210938 27.007812 L 32.621094 27.007812 C 32.890625 27.007812 33.03125 26.921875 33.109375 26.757812 C 33.125 26.726562 33.207031 26.5 33.203125 26.460938 L 33.636719 23.308594 C 33.636719 23.011719 33.386719 22.765625 33.085938 22.769531 " fill-opacity="1" fill-rule="nonzero"/><path fill="#faac82" d="M 31.6875 25.070312 C 31.863281 25.070312 32.671875 25.046875 32.976562 24.859375 C 32.59375 24.671875 31.871094 24.875 31.382812 24.984375 C 31.5 25.105469 31.59375 25.085938 31.6875 25.070312 Z M 27.074219 24.664062 C 27.015625 24.554688 27.046875 24.5 27.171875 24.496094 C 27.253906 24.496094 27.335938 24.507812 27.414062 24.523438 C 27.652344 24.574219 27.890625 24.625 28.128906 24.679688 C 28.707031 24.816406 29.296875 24.839844 29.886719 24.871094 C 30.015625 24.878906 30.109375 24.835938 30.1875 24.730469 C 30.277344 24.613281 30.257812 24.492188 30.363281 24.390625 C 30.441406 24.3125 30.644531 24.253906 30.738281 24.195312 C 30.816406 24.152344 30.886719 24.167969 30.9375 24.261719 C 31.03125 24.429688 31.074219 24.449219 31.25 24.414062 C 31.453125 24.375 31.453125 24.375 31.65625 24.324219 C 31.949219 24.253906 32.441406 24.214844 32.734375 24.28125 C 32.949219 24.332031 33.109375 24.367188 33.328125 24.40625 C 33.519531 24.457031 33.644531 24.519531 33.589844 24.773438 C 33.800781 24.910156 33.757812 25.0625 33.757812 25.246094 C 33.605469 25.707031 33.460938 26.144531 32.976562 26.351562 C 32.761719 26.441406 32.546875 26.4375 32.320312 26.5 C 31.949219 26.609375 31.570312 26.648438 31.179688 26.589844 C 30.84375 26.542969 30.507812 26.511719 30.167969 26.496094 C 29.703125 26.472656 29.238281 26.480469 28.773438 26.457031 C 28.3125 26.433594 27.726562 26.414062 27.148438 26.300781 C 26.914062 26.253906 27.085938 25.96875 27.039062 25.742188 C 27.023438 25.667969 26.992188 25.589844 26.953125 25.527344 C 26.824219 25.335938 26.824219 25.207031 26.96875 25.03125 C 27.035156 24.953125 27.089844 24.867188 27.152344 24.785156 C 27.121094 24.738281 27.09375 24.703125 27.074219 24.664062 " fill-opacity="1" fill-rule="nonzero"/><path fill="#522f2f" d="M 33.800781 22.941406 C 33.722656 22.785156 33.539062 22.5 33.292969 22.515625 L 31.019531 22.523438 C 30.796875 22.523438 30.660156 22.722656 30.660156 22.722656 C 30.632812 22.765625 30.554688 22.863281 30.503906 22.949219 C 30.417969 22.972656 30.371094 23.019531 30.375 23.097656 C 30.375 23.234375 30.597656 23.300781 30.796875 23.34375 L 33.519531 23.332031 C 33.761719 23.285156 33.941406 23.21875 33.941406 23.082031 C 33.941406 23.011719 33.886719 22.96875 33.800781 22.941406 " fill-opacity="1" fill-rule="nonzero"/><path fill="#b3674a" d="M 33.53125 24.082031 L 30.820312 24.09375 L 30.761719 23.710938 L 33.585938 23.699219 L 33.53125 24.082031 " fill-opacity="1" fill-rule="nonzero"/><path fill="#82848c" d="M 11.261719 21.316406 C 11.265625 18.589844 10.996094 17.359375 10.773438 14.882812 C 10.765625 14.777344 10.707031 14.710938 10.640625 14.691406 C 10.640625 14.679688 10.640625 14.667969 10.636719 14.65625 C 10.625 14.410156 10.332031 14.398438 10.316406 14.625 C 10.3125 14.625 10.308594 14.621094 10.300781 14.621094 C 10.289062 14.511719 10.214844 14.417969 10.105469 14.460938 C 9.554688 14.683594 9.03125 15.003906 8.554688 15.417969 C 8.472656 15.488281 8.441406 15.640625 8.523438 15.734375 C 8.886719 16.144531 9.277344 16.519531 9.6875 16.851562 C 9.367188 17.050781 9.214844 17.226562 8.871094 17.507812 C 8.644531 17.691406 8.523438 17.773438 8.808594 18.25 C 9.722656 19.789062 11.171875 22.898438 11.214844 22.929688 C 11.238281 22.929688 11.261719 21.8125 11.261719 21.316406 " fill-opacity="1" fill-rule="nonzero"/><path fill="#9ea0a8" d="M 19.660156 23.847656 C 19.648438 23.183594 19.535156 22.414062 19.484375 21.796875 C 19.410156 20.914062 18.925781 16.265625 17.390625 15.09375 C 17.050781 14.832031 16.355469 14.667969 15.921875 14.710938 C 15.640625 14.738281 15.09375 14.957031 15.449219 15.371094 C 15.453125 15.390625 15.457031 15.414062 15.464844 15.4375 C 15.898438 16.929688 16.007812 18.523438 16.226562 20.054688 C 16.390625 21.210938 16.558594 22.609375 16.800781 23.660156 C 16.648438 23.832031 16.546875 23.597656 16.472656 23.839844 C 16.449219 23.921875 16.46875 24.125 16.441406 24.171875 C 16.339844 24.367188 16.910156 24.886719 17.0625 24.890625 C 17.128906 24.890625 17.242188 24.9375 17.355469 24.976562 C 17.503906 25.273438 17.695312 25.550781 17.921875 25.707031 C 17.980469 25.824219 18.035156 25.96875 18.074219 26.15625 C 18.109375 26.359375 18.679688 26.101562 18.875 25.9375 C 19.519531 25.457031 19.617188 24.902344 19.660156 23.847656 " fill-opacity="1" fill-rule="nonzero"/><path fill="#82848c" d="M 13.359375 21.417969 C 13.335938 18.691406 13.539062 17.488281 13.742188 15.007812 C 13.75 14.902344 13.867188 14.808594 13.933594 14.789062 C 13.933594 14.777344 13.933594 14.765625 13.933594 14.75 C 13.945312 14.503906 14.242188 14.492188 14.257812 14.71875 C 14.261719 14.71875 14.269531 14.714844 14.273438 14.714844 C 14.285156 14.605469 14.359375 14.511719 14.46875 14.554688 C 15.027344 14.773438 15.554688 15.089844 16.039062 15.5 C 16.121094 15.566406 16.152344 15.722656 16.070312 15.8125 C 15.707031 16.226562 15.320312 16.605469 14.910156 16.941406 C 15.234375 17.136719 15.386719 17.3125 15.734375 17.589844 C 15.964844 17.773438 16.085938 17.855469 15.804688 18.332031 C 14.898438 19.878906 13.523438 23.023438 13.480469 23.054688 C 13.480469 23.054688 13.363281 21.914062 13.359375 21.417969 " fill-opacity="1" fill-rule="nonzero"/><path fill="#754c4c" d="M 30.660156 22.992188 C 30.648438 22.992188 30.640625 22.972656 30.640625 22.945312 C 30.640625 22.917969 30.648438 22.894531 30.660156 22.894531 L 33.566406 22.878906 C 33.578125 22.878906 33.585938 22.902344 33.585938 22.929688 C 33.585938 22.957031 33.578125 22.976562 33.566406 22.976562 L 30.660156 22.992188 " fill-opacity="1" fill-rule="nonzero"/><path fill="#faac82" d="M 7.304688 23.632812 C 7.179688 23.417969 7.050781 23.214844 6.933594 23.042969 C 6.703125 22.695312 6.359375 22.453125 6.078125 22.144531 C 5.859375 21.90625 5.355469 21.136719 5.207031 20.847656 C 5.175781 20.785156 4.769531 19.726562 4.632812 19.207031 C 4.558594 18.933594 4.546875 18.660156 4.589844 18.382812 C 4.613281 18.222656 4.621094 18.0625 4.636719 17.902344 C 4.652344 17.699219 4.582031 17.539062 4.425781 17.398438 C 4.242188 17.226562 4.066406 17.046875 3.910156 16.851562 C 3.71875 16.613281 3.609375 16.324219 3.566406 16.023438 C 3.550781 15.910156 3.496094 15.808594 3.367188 15.804688 C 3.253906 15.800781 3.207031 15.894531 3.175781 15.988281 C 3.164062 16.019531 3.15625 16.054688 3.148438 16.085938 C 3.105469 16.320312 3.125 16.546875 3.222656 16.757812 C 3.328125 16.992188 3.441406 17.222656 3.550781 17.453125 C 3.589844 17.535156 3.503906 17.617188 3.421875 17.582031 C 3.246094 17.503906 3 17.363281 2.839844 17.191406 C 2.601562 16.941406 2.296875 16.761719 2.050781 16.519531 C 1.601562 16.082031 1.054688 15.914062 0.445312 15.878906 C 0.246094 15.863281 0.109375 15.945312 0.03125 16.113281 C 0.0390625 16.140625 0.0429688 16.15625 0.0507812 16.167969 C 0.441406 16.578125 0.710938 17.070312 1.015625 17.539062 C 1.140625 17.730469 1.304688 17.886719 1.496094 18.011719 C 1.996094 18.328125 2.167969 18.558594 2.6875 18.851562 C 2.832031 18.933594 2.917969 19.035156 2.957031 19.199219 C 3.042969 19.546875 3.132812 19.894531 3.253906 20.230469 C 3.589844 21.152344 3.765625 22.121094 4.101562 23.039062 C 4.269531 23.503906 4.453125 23.96875 4.667969 24.414062 C 5.074219 25.257812 5.46875 26.164062 6.433594 26.523438 C 6.878906 26.691406 7.140625 26.675781 7.476562 26.324219 C 8.1875 25.578125 7.785156 24.484375 7.304688 23.632812 " fill-opacity="1" fill-rule="nonzero"/><path fill="#ffeadc" d="M 9.925781 22.992188 L 9.039062 22.992188 L 8.992188 22.988281 L 8.101562 22.988281 C 7.800781 22.988281 7.554688 23.21875 7.554688 23.503906 L 7.988281 26.5 C 7.988281 26.535156 8.070312 26.75 8.085938 26.78125 C 8.160156 26.9375 8.304688 27.015625 8.570312 27.019531 L 9.433594 27.019531 C 9.699219 27.023438 9.84375 26.941406 9.917969 26.785156 C 9.933594 26.753906 10.015625 26.539062 10.019531 26.503906 L 10.472656 23.511719 C 10.472656 23.226562 10.226562 22.992188 9.925781 22.992188 " fill-opacity="1" fill-rule="nonzero"/><path fill="#522f2f" d="M 10.679688 23.164062 C 10.601562 23.015625 10.421875 22.742188 10.175781 22.753906 L 7.914062 22.746094 C 7.695312 22.746094 7.554688 22.929688 7.554688 22.929688 C 7.527344 22.972656 7.449219 23.066406 7.398438 23.144531 C 7.3125 23.167969 7.269531 23.210938 7.269531 23.289062 C 7.269531 23.417969 7.488281 23.480469 7.6875 23.523438 L 10.398438 23.53125 C 10.636719 23.492188 10.816406 23.425781 10.816406 23.296875 C 10.816406 23.230469 10.765625 23.1875 10.679688 23.164062 " fill-opacity="1" fill-rule="nonzero"/><path fill="#b3674a" d="M 10.359375 24.246094 L 7.660156 24.238281 L 7.609375 23.871094 L 10.414062 23.878906 L 10.359375 24.246094 " fill-opacity="1" fill-rule="nonzero"/><path fill="#754c4c" d="M 7.589844 23.25 C 7.578125 23.25 7.570312 23.226562 7.570312 23.199219 C 7.570312 23.171875 7.578125 23.148438 7.589844 23.148438 L 10.496094 23.132812 C 10.507812 23.132812 10.515625 23.15625 10.515625 23.183594 C 10.515625 23.210938 10.507812 23.234375 10.496094 23.234375 L 7.589844 23.25 " fill-opacity="1" fill-rule="nonzero"/><path fill="#faac82" d="M 9.535156 25.230469 C 9.332031 25.191406 9.132812 25.148438 8.929688 25.109375 C 8.765625 25.078125 8.597656 25.046875 8.429688 25.011719 C 8.90625 24.886719 9.351562 25.035156 9.839844 25.140625 C 9.726562 25.261719 9.628906 25.246094 9.535156 25.230469 Z M 18.339844 24.707031 C 18.238281 24.417969 18.253906 24.0625 17.960938 23.945312 C 17.527344 23.769531 17.746094 23.839844 17.28125 23.878906 C 16.445312 23.949219 15.320312 24.308594 12.898438 24.796875 C 12.664062 24.84375 12.429688 24.878906 12.195312 24.914062 C 11.902344 24.957031 11.605469 25.070312 11.304688 25.023438 C 10.945312 24.964844 10.777344 24.523438 10.480469 24.351562 C 10.402344 24.304688 10.328125 24.324219 10.277344 24.417969 C 10.1875 24.585938 10.144531 24.605469 9.96875 24.570312 C 9.765625 24.535156 9.5625 24.484375 9.359375 24.4375 C 9.066406 24.371094 8.777344 24.382812 8.484375 24.449219 C 8.269531 24.5 8.050781 24.550781 7.832031 24.589844 C 7.566406 24.644531 7.523438 24.703125 7.582031 24.957031 C 7.367188 25.09375 7.3125 25.175781 7.375 25.359375 C 7.53125 25.820312 7.761719 26.230469 8.246094 26.429688 C 8.464844 26.519531 8.6875 26.601562 8.914062 26.667969 C 9.285156 26.773438 9.664062 26.808594 10.054688 26.75 C 10.390625 26.699219 10.730469 26.664062 11.066406 26.644531 C 11.996094 26.59375 12.933594 26.496094 13.859375 26.472656 C 14.808594 26.449219 15.761719 26.367188 16.699219 26.207031 C 17.429688 26.085938 18.808594 26.011719 18.339844 24.707031 " fill-opacity="1" fill-rule="nonzero"/><path fill="#82848c" d="M 18.867188 25.007812 C 18.761719 23.824219 17.574219 23.421875 16.800781 23.460938 C 16.695312 23.464844 15.691406 23.765625 15.21875 24.035156 C 14.984375 24.167969 15.203125 24.25 15.222656 24.289062 C 15.222656 24.332031 16.257812 24.34375 16.203125 25.675781 C 16.175781 26.375 15.878906 26.34375 15.878906 26.34375 C 15.816406 26.367188 15.804688 26.460938 16.378906 26.417969 C 16.703125 26.394531 18.027344 26.332031 18.394531 26.179688 C 18.460938 26.160156 18.527344 26.125 18.582031 26.0625 C 18.804688 25.824219 18.894531 25.300781 18.867188 25.007812 " fill-opacity="1" fill-rule="nonzero"/><path fill="#faac82" d="M 10.941406 13.925781 C 10.910156 13.949219 10.871094 13.976562 10.820312 14.007812 C 10.679688 13.878906 10.371094 13.71875 10.324219 13.535156 C 10.277344 13.328125 10.292969 13.140625 10.246094 12.933594 C 10.191406 12.671875 10.445312 12.492188 10.632812 12.332031 C 10.703125 12.265625 10.789062 12.257812 10.878906 12.289062 C 10.933594 12.308594 10.988281 12.328125 11.089844 12.363281 C 11.058594 12.261719 11.042969 12.195312 11.015625 12.136719 C 10.941406 11.976562 10.941406 11.886719 11.03125 11.820312 C 11.132812 11.738281 11.234375 11.761719 11.335938 11.828125 C 11.363281 11.847656 11.398438 11.859375 11.472656 11.890625 C 11.449219 11.777344 11.441406 11.703125 11.421875 11.632812 C 11.347656 11.382812 11.367188 11.335938 11.601562 11.226562 C 11.628906 11.214844 11.652344 11.195312 11.679688 11.183594 C 11.847656 11.097656 11.890625 11.101562 12.027344 11.238281 C 12.070312 11.277344 12.097656 11.332031 12.132812 11.378906 C 12.148438 11.371094 12.164062 11.363281 12.183594 11.355469 C 12.195312 11.285156 12.21875 11.21875 12.226562 11.152344 C 12.273438 10.746094 12.472656 10.417969 12.742188 10.128906 C 12.9375 9.925781 13.242188 9.953125 13.378906 10.199219 C 13.445312 10.3125 13.519531 10.34375 13.636719 10.355469 C 13.726562 10.367188 13.828125 10.410156 13.894531 10.46875 C 13.972656 10.542969 14.058594 10.582031 14.160156 10.605469 C 14.347656 10.648438 14.476562 10.757812 14.546875 10.9375 C 14.589844 11.046875 14.625 11.15625 14.671875 11.265625 C 14.695312 11.308594 14.730469 11.347656 14.785156 11.425781 C 14.820312 11.335938 14.832031 11.289062 14.859375 11.25 C 14.882812 11.210938 14.925781 11.160156 14.960938 11.15625 C 15 11.152344 15.050781 11.199219 15.078125 11.234375 C 15.109375 11.273438 15.125 11.324219 15.136719 11.375 C 15.1875 11.578125 15.253906 11.785156 15.273438 11.992188 C 15.355469 12.9375 15.28125 13.867188 14.867188 14.738281 C 14.746094 14.992188 14.585938 15.238281 14.414062 15.460938 C 14.148438 15.796875 13.601562 15.894531 13.203125 15.722656 C 12.828125 15.558594 12.472656 15.378906 12.152344 15.121094 C 11.828125 14.859375 11.535156 14.574219 11.359375 14.191406 C 11.324219 14.113281 11.28125 14.066406 11.191406 14.042969 C 11.105469 14.019531 11.03125 13.96875 10.941406 13.925781 " fill-opacity="1" fill-rule="nonzero"/><path fill="#522f2f" d="M 13.734375 15.769531 C 13.75 15.742188 13.777344 15.730469 13.804688 15.714844 C 14.050781 15.601562 14.234375 15.472656 14.398438 15.25 C 14.511719 15.101562 14.710938 14.75 14.765625 14.566406 C 14.925781 14.046875 15.042969 13.617188 15.074219 13.117188 C 15.105469 12.632812 14.980469 12.203125 14.746094 11.796875 C 14.460938 11.292969 14.042969 10.851562 13.53125 10.554688 C 13.402344 10.480469 13.265625 10.414062 13.125 10.359375 C 13.035156 10.324219 12.828125 10.214844 12.726562 10.25 C 12.566406 10.308594 12.597656 10.628906 12.5625 10.761719 C 12.453125 11.160156 12.285156 11.535156 12.042969 11.871094 C 11.8125 12.195312 11.40625 12.441406 11.015625 12.535156 C 10.910156 12.558594 10.664062 12.328125 10.449219 12.496094 C 10.421875 12.519531 10.398438 12.546875 10.378906 12.574219 C 10.328125 12.648438 10.300781 12.71875 10.289062 12.84375 C 10.265625 13.082031 10.316406 13.320312 10.433594 13.527344 C 10.589844 13.804688 10.824219 14.015625 11.113281 14.214844 C 11.195312 14.269531 11.199219 14.339844 11.199219 14.421875 C 11.203125 15.234375 11.167969 16.050781 11.273438 16.859375 C 11.328125 17.300781 11.414062 17.746094 11.597656 18.15625 C 11.6875 18.355469 11.800781 18.550781 11.949219 18.710938 C 12.078125 18.851562 12.210938 18.949219 12.15625 19.175781 C 12.078125 19.507812 11.628906 19.507812 11.375 19.496094 C 10.890625 19.472656 10.398438 19.414062 9.933594 19.261719 C 8.601562 18.835938 7.777344 17.554688 8.132812 16.171875 C 8.378906 15.21875 8.800781 14.308594 8.867188 13.316406 C 8.902344 12.75 8.828125 12.164062 8.992188 11.613281 C 9.394531 10.289062 10.179688 9.035156 11.65625 8.773438 C 12.296875 8.65625 13.449219 8.785156 14.058594 9.078125 C 15.070312 9.5625 15.292969 10.074219 15.714844 11.101562 C 15.894531 11.542969 15.925781 12.1875 15.980469 12.652344 C 16.046875 13.242188 16.128906 13.828125 16.21875 14.414062 C 16.351562 15.289062 16.871094 16.113281 16.664062 17.023438 C 16.554688 17.5 16.269531 17.964844 15.988281 18.363281 C 15.515625 19.035156 14.640625 19.863281 13.742188 19.367188 C 13.269531 19.105469 13.679688 18.210938 13.734375 17.832031 C 13.832031 17.179688 13.828125 16.515625 13.726562 15.863281 C 13.722656 15.832031 13.734375 15.769531 13.734375 15.769531 " fill-opacity="1" fill-rule="nonzero"/><path fill="#965947" d="M 11.34375 14.277344 C 11.34375 14.453125 11.261719 14.570312 11.140625 14.5625 C 11.015625 14.558594 10.9375 14.441406 10.945312 14.269531 C 10.945312 14.21875 10.949219 14.164062 10.972656 14.125 C 11.015625 14.054688 11.019531 13.992188 10.992188 13.917969 C 10.976562 13.875 10.980469 13.8125 11.003906 13.773438 C 11.027344 13.738281 11.082031 13.699219 11.125 13.703125 C 11.164062 13.703125 11.230469 13.742188 11.242188 13.777344 C 11.285156 13.941406 11.3125 14.109375 11.34375 14.277344 " fill-opacity="1" fill-rule="nonzero"/><path fill="#522f2f" d="M 12.898438 12.75 C 12.886719 12.71875 12.867188 12.695312 12.84375 12.683594 C 12.828125 12.667969 12.808594 12.660156 12.792969 12.652344 C 12.726562 12.636719 12.671875 12.675781 12.652344 12.734375 C 12.609375 12.84375 12.59375 13.09375 12.769531 13.097656 C 12.941406 13.097656 12.933594 12.863281 12.898438 12.75 " fill-opacity="1" fill-rule="nonzero"/><path fill="#522f2f" d="M 14.5625 12.734375 C 14.566406 12.683594 14.523438 12.625 14.476562 12.617188 C 14.445312 12.609375 14.421875 12.613281 14.398438 12.625 C 14.359375 12.640625 14.328125 12.679688 14.328125 12.722656 C 14.304688 12.792969 14.308594 12.875 14.335938 12.945312 C 14.351562 12.988281 14.394531 13.03125 14.445312 13.027344 C 14.5 13.023438 14.539062 12.992188 14.554688 12.941406 C 14.578125 12.875 14.582031 12.800781 14.5625 12.734375 " fill-opacity="1" fill-rule="nonzero"/><path fill="#522f2f" d="M 13.140625 12.160156 C 13.070312 12.039062 12.75 12.054688 12.636719 12.070312 C 12.441406 12.101562 12.273438 12.199219 12.132812 12.335938 C 12.117188 12.355469 12.121094 12.378906 12.136719 12.394531 C 12.144531 12.40625 12.160156 12.414062 12.179688 12.40625 C 12.460938 12.289062 12.71875 12.28125 13.015625 12.285156 C 13.085938 12.285156 13.195312 12.253906 13.140625 12.160156 " fill-opacity="1" fill-rule="nonzero"/><path fill="#522f2f" d="M 14.789062 12.207031 C 14.726562 12.117188 14.675781 12.082031 14.570312 12.042969 C 14.472656 12.007812 14.371094 12.015625 14.300781 12.09375 C 14.246094 12.152344 14.269531 12.21875 14.347656 12.230469 C 14.40625 12.242188 14.46875 12.234375 14.53125 12.242188 C 14.617188 12.253906 14.695312 12.28125 14.773438 12.316406 C 14.796875 12.324219 14.816406 12.3125 14.824219 12.296875 C 14.832031 12.285156 14.800781 12.222656 14.789062 12.207031 " fill-opacity="1" fill-rule="nonzero"/><path fill="#ffeadc" d="M 14.308594 14.449219 C 14.359375 14.335938 14.21875 14.386719 13.652344 14.417969 C 13.363281 14.417969 13.191406 14.386719 12.886719 14.386719 C 12.855469 14.386719 12.835938 14.421875 12.847656 14.453125 C 12.945312 14.683594 13.296875 14.859375 13.667969 14.859375 C 13.960938 14.859375 14.207031 14.671875 14.308594 14.449219 " fill-opacity="1" fill-rule="nonzero"/><path fill="#cf785d" d="M 13.988281 13.988281 C 13.945312 13.996094 13.894531 13.992188 13.835938 13.988281 C 13.8125 13.984375 13.796875 13.964844 13.800781 13.941406 C 13.804688 13.921875 13.824219 13.90625 13.847656 13.90625 C 13.96875 13.921875 14.054688 13.90625 14.082031 13.863281 C 14.109375 13.824219 14.082031 13.753906 14.070312 13.730469 C 13.742188 12.941406 13.816406 12.6875 13.855469 12.546875 C 13.863281 12.53125 13.867188 12.515625 13.867188 12.503906 C 13.871094 12.480469 13.894531 12.464844 13.914062 12.46875 C 13.9375 12.472656 13.953125 12.496094 13.949219 12.515625 C 13.945312 12.535156 13.941406 12.550781 13.933594 12.570312 C 13.898438 12.6875 13.828125 12.9375 14.144531 13.695312 C 14.152344 13.710938 14.207031 13.824219 14.148438 13.910156 C 14.117188 13.953125 14.066406 13.980469 13.988281 13.988281 " fill-opacity="1" fill-rule="nonzero"/><path fill="#ffeadc" d="M 11.191406 13.964844 C 11.191406 14.125 11.058594 14.257812 10.898438 14.257812 C 10.734375 14.257812 10.601562 14.128906 10.601562 13.964844 C 10.601562 13.804688 10.730469 13.671875 10.894531 13.671875 C 11.058594 13.671875 11.191406 13.800781 11.191406 13.964844 " fill-opacity="1" fill-rule="nonzero"/><path fill="#cf785d" d="M 10.867188 13.511719 C 10.863281 13.511719 10.859375 13.511719 10.855469 13.511719 C 10.824219 13.503906 10.804688 13.472656 10.8125 13.445312 C 10.914062 13.007812 10.644531 12.804688 10.632812 12.796875 C 10.609375 12.777344 10.605469 12.742188 10.621094 12.71875 C 10.640625 12.691406 10.675781 12.6875 10.703125 12.707031 C 10.714844 12.714844 11.042969 12.960938 10.921875 13.46875 C 10.917969 13.496094 10.894531 13.511719 10.867188 13.511719 " fill-opacity="1" fill-rule="nonzero"/><path fill="#cf785d" d="M 10.601562 13.125 C 10.601562 13.125 10.597656 13.125 10.59375 13.125 C 10.5625 13.121094 10.542969 13.09375 10.546875 13.0625 C 10.566406 12.914062 10.617188 12.875 10.683594 12.839844 C 10.691406 12.835938 10.699219 12.832031 10.703125 12.828125 C 10.730469 12.8125 10.765625 12.820312 10.78125 12.84375 C 10.800781 12.871094 10.789062 12.90625 10.765625 12.921875 C 10.753906 12.925781 10.746094 12.933594 10.738281 12.9375 C 10.695312 12.960938 10.671875 12.972656 10.65625 13.078125 C 10.652344 13.105469 10.628906 13.125 10.601562 13.125 " fill-opacity="1" fill-rule="nonzero"/><path fill="#754c4c" d="M 10.09375 17.4375 C 10.078125 17.4375 10.0625 17.429688 10.054688 17.414062 L 10.050781 17.402344 C 9.804688 16.84375 9.46875 16.078125 10.101562 14.871094 C 10.449219 14.203125 10.296875 13.847656 10.214844 13.726562 C 9.804688 13.121094 10.023438 12.460938 10.035156 12.433594 C 10.039062 12.414062 10.0625 12.402344 10.085938 12.410156 C 10.105469 12.417969 10.117188 12.441406 10.109375 12.460938 C 10.109375 12.46875 9.894531 13.109375 10.28125 13.683594 C 10.371094 13.816406 10.542969 14.203125 10.171875 14.910156 C 9.558594 16.082031 9.871094 16.796875 10.125 17.371094 L 10.128906 17.382812 C 10.136719 17.402344 10.128906 17.425781 10.109375 17.4375 C 10.101562 17.4375 10.097656 17.4375 10.09375 17.4375 " fill-opacity="1" fill-rule="nonzero"/><path fill="#754c4c" d="M 14.898438 17.847656 C 14.886719 17.847656 14.875 17.84375 14.867188 17.835938 C 14.851562 17.820312 14.851562 17.792969 14.867188 17.777344 C 14.871094 17.777344 14.96875 17.65625 15.148438 16.886719 C 15.367188 15.949219 15.144531 14.773438 15.140625 14.761719 C 15.136719 14.742188 15.152344 14.71875 15.171875 14.714844 C 15.195312 14.710938 15.214844 14.726562 15.222656 14.746094 C 15.222656 14.757812 15.453125 15.953125 15.230469 16.90625 C 15.042969 17.707031 14.9375 17.824219 14.925781 17.835938 C 14.917969 17.84375 14.90625 17.847656 14.898438 17.847656 " fill-opacity="1" fill-rule="nonzero"/><path fill="#754c4c" d="M 10.414062 12.109375 C 10.394531 12.109375 10.378906 12.09375 10.375 12.074219 C 10.375 12.050781 10.390625 12.03125 10.410156 12.027344 C 10.414062 12.027344 10.8125 11.984375 11.152344 11.636719 C 11.652344 11.128906 11.792969 10.390625 11.796875 10.382812 C 11.800781 10.359375 11.820312 10.34375 11.84375 10.347656 C 11.867188 10.351562 11.878906 10.375 11.875 10.394531 C 11.871094 10.425781 11.730469 11.167969 11.210938 11.695312 C 10.847656 12.0625 10.4375 12.105469 10.417969 12.109375 C 10.417969 12.109375 10.417969 12.109375 10.414062 12.109375 " fill-opacity="1" fill-rule="nonzero"/><path fill="#faac82" d="M 29.703125 12.832031 C 29.664062 12.433594 29.25 12.851562 29.25 12.851562 C 29.25 12.851562 29.394531 12.019531 29.25 11.539062 C 29.234375 11.488281 29.203125 11.449219 29.167969 11.421875 C 29.167969 11.421875 29.046875 10.777344 29.03125 10.761719 C 28.894531 10.539062 28.675781 9.914062 28.589844 9.832031 C 28.167969 9.40625 26.765625 9.183594 26.722656 9.191406 C 26.597656 9.207031 26.472656 9.234375 26.351562 9.269531 C 26.316406 9.28125 26.046875 9.320312 25.984375 9.382812 C 25.726562 9.648438 25.457031 9.929688 25.316406 10.269531 C 24.914062 11.226562 25.152344 11.042969 25.3125 11.527344 C 25.191406 11.746094 24.511719 12.582031 24.488281 12.832031 C 24.472656 13.046875 24.507812 13.066406 24.703125 13.148438 C 24.800781 13.1875 24.988281 13.195312 24.984375 13.207031 C 24.941406 13.304688 25.019531 13.726562 25.179688 13.667969 C 26.265625 13.265625 25.398438 13.980469 25.160156 14.074219 C 25.15625 14.078125 25.265625 14.589844 25.269531 14.640625 C 25.289062 14.8125 25.28125 15.09375 25.289062 15.140625 C 25.332031 15.351562 25.507812 15.390625 25.640625 15.394531 C 26.039062 15.394531 26.453125 15.179688 26.816406 15.058594 L 28.597656 14.144531 L 29.703125 12.832031 " fill-opacity="1" fill-rule="nonzero"/><path fill="#faac82" d="M 26.621094 14.835938 C 26.632812 14.847656 26.699219 15.03125 26.765625 15.214844 C 26.789062 15.28125 26.8125 15.34375 26.832031 15.402344 C 26.851562 15.453125 26.867188 15.503906 26.882812 15.539062 C 27.078125 16.0625 27.082031 16.375 27.585938 16.5625 C 27.875 16.667969 29.28125 16.089844 29.855469 15.597656 C 29.917969 15.542969 30.675781 15.453125 30.03125 14.617188 C 29.757812 13.976562 29.582031 13.300781 29.511719 12.605469 L 26.621094 14.835938 " fill-opacity="1" fill-rule="nonzero"/><g clip-path="url(#7f23f587be)"><path fill="#995743" d="M 31.660156 10.109375 C 31.128906 7.96875 28.667969 7.820312 28.628906 7.824219 C 27.695312 7.757812 26.636719 8.132812 26.167969 8.453125 C 25.410156 8.960938 25.367188 10.007812 25.46875 9.988281 C 26.214844 9.84375 26.683594 10.359375 27.210938 10.222656 C 28.277344 9.945312 28.34375 12.472656 28.347656 12.832031 C 28.585938 13.09375 28.542969 11.875 29.113281 11.390625 C 29.113281 11.394531 29.113281 11.398438 29.113281 11.402344 C 29.171875 11.640625 29.226562 11.882812 29.28125 12.125 C 29.292969 12.179688 29.335938 12.195312 29.378906 12.1875 C 29.425781 12.339844 29.476562 12.492188 29.527344 12.640625 C 29.457031 12.824219 29.421875 13.019531 29.46875 13.214844 C 29.5 13.347656 29.738281 13.863281 29.746094 13.816406 C 29.871094 13.691406 30.433594 13.105469 30.464844 13.066406 C 30.488281 13.035156 30.964844 12.46875 31.085938 12.273438 C 31.308594 11.910156 31.429688 11.414062 31.402344 10.960938 C 31.660156 10.832031 31.730469 10.398438 31.660156 10.109375 " fill-opacity="1" fill-rule="nonzero"/></g><path fill="#8e5d42" d="M 29.664062 12.433594 C 29.839844 12.394531 29.753906 12.5 29.664062 12.523438 C 29.605469 12.539062 29.605469 12.445312 29.664062 12.433594 " fill-opacity="1" fill-rule="nonzero"/><path fill="#522f2f" d="M 26.070312 11.613281 C 26.066406 11.605469 26.066406 11.597656 26.0625 11.589844 C 26.035156 11.5 25.929688 11.410156 25.84375 11.496094 C 25.816406 11.523438 25.8125 11.570312 25.8125 11.609375 C 25.8125 11.660156 25.816406 11.71875 25.828125 11.769531 C 25.835938 11.8125 25.855469 11.847656 25.890625 11.875 C 25.90625 11.886719 25.921875 11.902344 25.945312 11.898438 C 25.988281 11.894531 26.023438 11.859375 26.046875 11.824219 C 26.066406 11.789062 26.074219 11.75 26.074219 11.710938 C 26.074219 11.679688 26.074219 11.644531 26.070312 11.613281 " fill-opacity="1" fill-rule="nonzero"/><path fill="#faac82" d="M 28.648438 12.046875 C 28.507812 12.5625 28.636719 12.984375 28.910156 13.078125 C 29.175781 13.171875 29.464844 12.898438 29.675781 12.246094 C 29.839844 11.738281 29.699219 11.269531 29.414062 11.214844 C 29.128906 11.160156 28.785156 11.53125 28.648438 12.046875 " fill-opacity="1" fill-rule="nonzero"/><path fill="#cf785d" d="M 28.898438 12.609375 C 28.867188 12.609375 28.84375 12.585938 28.839844 12.554688 C 28.816406 11.789062 29.355469 11.535156 29.378906 11.523438 C 29.40625 11.511719 29.441406 11.523438 29.453125 11.550781 C 29.464844 11.578125 29.453125 11.613281 29.425781 11.625 C 29.40625 11.632812 28.933594 11.863281 28.953125 12.550781 C 28.957031 12.582031 28.929688 12.609375 28.898438 12.609375 " fill-opacity="1" fill-rule="nonzero"/><path fill="#cf785d" d="M 29.402344 12.117188 C 29.402344 12.117188 29.402344 12.117188 29.398438 12.117188 C 29.367188 12.117188 29.34375 12.089844 29.347656 12.058594 C 29.355469 11.886719 29.320312 11.855469 29.261719 11.804688 C 29.25 11.796875 29.238281 11.789062 29.226562 11.777344 C 29.207031 11.757812 29.203125 11.722656 29.226562 11.699219 C 29.246094 11.675781 29.28125 11.675781 29.304688 11.695312 C 29.316406 11.703125 29.324219 11.714844 29.335938 11.722656 C 29.417969 11.792969 29.472656 11.855469 29.460938 12.066406 C 29.457031 12.097656 29.433594 12.117188 29.402344 12.117188 " fill-opacity="1" fill-rule="nonzero"/><path fill="#995743" d="M 25.507812 10.972656 C 25.484375 10.980469 25.464844 11.019531 25.464844 11.023438 C 25.453125 11.089844 25.449219 11.199219 25.519531 11.214844 C 25.636719 11.25 25.902344 11.007812 26.265625 11.207031 C 26.359375 11.257812 26.480469 11.285156 26.445312 11.1875 C 26.378906 11.003906 25.882812 10.800781 25.507812 10.972656 " fill-opacity="1" fill-rule="nonzero"/><path fill="#cf785d" d="M 25.742188 15.433594 C 25.71875 15.433594 25.703125 15.417969 25.699219 15.394531 C 25.699219 15.371094 25.714844 15.355469 25.738281 15.351562 C 25.75 15.351562 26.953125 15.273438 27.949219 14.773438 C 28.207031 14.640625 28.457031 14.394531 28.691406 14.042969 C 28.703125 14.023438 28.726562 14.019531 28.746094 14.03125 C 28.765625 14.042969 28.769531 14.070312 28.757812 14.085938 C 28.515625 14.453125 28.257812 14.707031 27.984375 14.84375 C 26.976562 15.355469 25.753906 15.433594 25.742188 15.433594 " fill-opacity="1" fill-rule="nonzero"/><path fill="#cf785d" d="M 27.230469 16.359375 C 27.21875 16.359375 27.203125 16.355469 27.195312 16.34375 C 26.980469 16.003906 26.648438 15.433594 26.644531 15.425781 C 26.632812 15.410156 26.640625 15.382812 26.660156 15.371094 C 26.679688 15.363281 26.703125 15.367188 26.714844 15.386719 C 26.71875 15.394531 27.050781 15.964844 27.265625 16.300781 C 27.277344 16.316406 27.273438 16.34375 27.253906 16.355469 C 27.246094 16.359375 27.238281 16.359375 27.230469 16.359375 " fill-opacity="1" fill-rule="nonzero"/><path fill="#cf785d" d="M 29.21875 13.519531 C 29.207031 13.519531 29.195312 13.515625 29.1875 13.507812 C 29.171875 13.492188 29.171875 13.46875 29.1875 13.449219 C 29.308594 13.324219 29.410156 13.082031 29.410156 13.078125 C 29.421875 13.058594 29.445312 13.050781 29.464844 13.058594 C 29.484375 13.066406 29.496094 13.089844 29.488281 13.109375 C 29.480469 13.121094 29.375 13.367188 29.246094 13.503906 C 29.238281 13.515625 29.226562 13.519531 29.21875 13.519531 " fill-opacity="1" fill-rule="nonzero"/><path fill="#7d402d" d="M 31.277344 11.820312 C 31.269531 11.820312 31.261719 11.820312 31.257812 11.816406 C 31.238281 11.808594 31.230469 11.78125 31.238281 11.761719 C 31.242188 11.757812 31.296875 11.644531 31.363281 11.144531 C 31.4375 10.621094 31.003906 10.460938 31 10.457031 C 30.976562 10.449219 30.964844 10.429688 30.972656 10.40625 C 30.980469 10.386719 31.003906 10.375 31.027344 10.382812 C 31.03125 10.386719 31.523438 10.570312 31.445312 11.15625 C 31.371094 11.679688 31.316406 11.796875 31.3125 11.800781 C 31.304688 11.8125 31.289062 11.820312 31.277344 11.820312 " fill-opacity="1" fill-rule="nonzero"/><path fill="#b55136" d="M 23.644531 18.9375 C 23.632812 18.9375 23.625 18.929688 23.617188 18.921875 C 22.882812 18.003906 22.132812 16.308594 22.125 16.292969 C 22.117188 16.269531 22.125 16.246094 22.148438 16.238281 C 22.167969 16.230469 22.191406 16.238281 22.199219 16.257812 C 22.207031 16.277344 22.953125 17.960938 23.679688 18.871094 C 23.695312 18.890625 23.691406 18.914062 23.675781 18.929688 C 23.664062 18.9375 23.652344 18.9375 23.644531 18.9375 " fill-opacity="1" fill-rule="nonzero"/><path fill="#b55136" d="M 33.488281 18.695312 C 33.480469 18.699219 33.46875 18.695312 33.457031 18.691406 C 33.4375 18.679688 33.429688 18.65625 33.441406 18.636719 C 33.449219 18.621094 34.292969 17.066406 34.515625 16.539062 C 34.703125 16.089844 34.742188 15.96875 34.742188 15.96875 C 34.75 15.945312 34.773438 15.933594 34.792969 15.941406 C 34.816406 15.949219 34.828125 15.96875 34.820312 15.992188 C 34.820312 15.996094 34.78125 16.117188 34.589844 16.570312 C 34.367188 17.097656 33.519531 18.660156 33.511719 18.675781 C 33.507812 18.683594 33.5 18.691406 33.488281 18.695312 " fill-opacity="1" fill-rule="nonzero"/><path fill="#ffeadc" d="M 27.257812 24.507812 C 27.257812 24.507812 26.890625 26.28125 27.148438 26.414062 C 27.324219 26.503906 28.585938 26.59375 28.738281 26.496094 C 28.878906 26.410156 28.777344 26.042969 28.835938 25.667969 C 28.847656 25.582031 28.875 25.363281 28.890625 25.300781 C 28.96875 24.902344 28.984375 24.765625 28.8125 24.726562 C 28.652344 24.691406 27.257812 24.507812 27.257812 24.507812 " fill-opacity="1" fill-rule="nonzero"/><path fill="#dd6a4b" d="M 27.585938 25.707031 C 27.601562 25.019531 27.71875 24.902344 27.71875 24.484375 C 27.71875 24.390625 27.140625 24.289062 26.925781 24.261719 C 26.328125 24.191406 25.996094 24.214844 25.195312 24.125 C 24.980469 24.101562 24.183594 23.9375 23.976562 23.96875 C 23.507812 24.035156 23.5 24.125 23.035156 24.226562 C 22.738281 24.292969 22.46875 24.507812 22.058594 24.703125 C 22.019531 24.722656 21.230469 24.933594 20.839844 25.421875 C 20.789062 25.484375 21.125 25.957031 21.175781 26.011719 C 21.335938 26.1875 21.539062 26.3125 21.761719 26.398438 C 22.664062 26.742188 23.734375 26.65625 24.6875 26.6875 C 25.339844 26.710938 25.472656 26.691406 26.125 26.703125 C 26.472656 26.710938 27.625 26.617188 27.617188 26.484375 C 27.617188 26.40625 27.578125 25.910156 27.585938 25.707031 " fill-opacity="1" fill-rule="nonzero"/><path fill="#b55136" d="M 27.652344 24.464844 C 27.648438 24.464844 27.644531 24.464844 27.640625 24.464844 C 27.128906 24.296875 26.335938 24.234375 25.5625 24.175781 C 24.425781 24.085938 23.726562 24.015625 23.660156 23.746094 C 23.320312 22.316406 23.769531 19.691406 23.773438 19.664062 C 23.777344 19.644531 23.796875 19.628906 23.820312 19.632812 C 23.839844 19.636719 23.855469 19.65625 23.851562 19.679688 C 23.847656 19.703125 23.402344 22.3125 23.738281 23.726562 C 23.792969 23.957031 24.695312 24.027344 25.570312 24.09375 C 26.347656 24.15625 27.148438 24.21875 27.664062 24.386719 C 27.6875 24.394531 27.699219 24.417969 27.691406 24.4375 C 27.6875 24.457031 27.671875 24.464844 27.652344 24.464844 " fill-opacity="1" fill-rule="nonzero"/><path fill="#cf785d" d="M 31.4375 25.601562 C 31.414062 25.601562 31.398438 25.585938 31.394531 25.5625 C 31.394531 25.542969 31.410156 25.523438 31.433594 25.519531 C 31.449219 25.519531 32.855469 25.421875 33.140625 25.285156 C 33.238281 25.238281 33.308594 25.195312 33.3125 25.195312 C 33.332031 25.183594 33.355469 25.191406 33.367188 25.210938 C 33.378906 25.226562 33.371094 25.253906 33.351562 25.265625 C 33.351562 25.265625 33.277344 25.308594 33.175781 25.355469 C 32.875 25.5 31.496094 25.597656 31.4375 25.601562 " fill-opacity="1" fill-rule="nonzero"/><path fill="#cf785d" d="M 31.546875 26.035156 C 31.523438 26.035156 31.507812 26.019531 31.503906 25.996094 C 31.503906 25.976562 31.519531 25.957031 31.542969 25.953125 C 31.550781 25.953125 32.433594 25.867188 32.777344 25.777344 C 33.117188 25.683594 33.304688 25.523438 33.304688 25.523438 C 33.324219 25.507812 33.347656 25.511719 33.363281 25.527344 C 33.378906 25.542969 33.375 25.570312 33.359375 25.582031 C 33.351562 25.589844 33.15625 25.757812 32.800781 25.855469 C 32.449219 25.949219 31.585938 26.03125 31.550781 26.035156 C 31.546875 26.035156 31.546875 26.035156 31.546875 26.035156 " fill-opacity="1" fill-rule="nonzero"/><path fill="#cf785d" d="M 13.203125 15.761719 C 13.199219 15.761719 13.195312 15.761719 13.191406 15.761719 C 13.164062 15.753906 12.519531 15.589844 12.183594 15.363281 C 11.703125 15.039062 11.542969 14.738281 11.535156 14.722656 C 11.523438 14.703125 11.53125 14.679688 11.550781 14.671875 C 11.574219 14.660156 11.597656 14.667969 11.605469 14.6875 C 11.609375 14.691406 11.769531 14.984375 12.230469 15.296875 C 12.554688 15.515625 13.207031 15.679688 13.210938 15.683594 C 13.234375 15.6875 13.246094 15.710938 13.242188 15.730469 C 13.238281 15.75 13.21875 15.761719 13.203125 15.761719 " fill-opacity="1" fill-rule="nonzero"/><path fill="#727682" d="M 17.089844 23.398438 C 17.039062 23.394531 17.039062 23.476562 17.089844 23.476562 C 18.332031 23.550781 19.15625 24.765625 18.769531 25.929688 C 18.75 25.976562 18.832031 26 18.847656 25.949219 C 19.253906 24.734375 18.378906 23.472656 17.089844 23.398438 " fill-opacity="1" fill-rule="nonzero"/><path fill="#727682" d="M 8.886719 20.160156 C 8.648438 21.007812 8.550781 21.871094 8.324219 22.730469 C 8.3125 22.777344 8.386719 22.800781 8.402344 22.75 C 8.644531 21.917969 8.726562 21.027344 8.964844 20.183594 C 8.976562 20.132812 8.898438 20.113281 8.886719 20.160156 " fill-opacity="1" fill-rule="nonzero"/><path fill="#cf785d" d="M 8.285156 24.910156 C 8.117188 24.894531 7.953125 24.878906 7.785156 24.859375 C 7.734375 24.855469 7.734375 24.9375 7.785156 24.941406 C 7.953125 24.957031 8.121094 24.972656 8.285156 24.992188 C 8.339844 24.996094 8.335938 24.914062 8.285156 24.910156 " fill-opacity="1" fill-rule="nonzero"/><path fill="#cf785d" d="M 9.410156 25.640625 C 8.804688 25.550781 8.207031 25.414062 7.621094 25.238281 C 7.570312 25.222656 7.550781 25.300781 7.597656 25.316406 C 8.183594 25.492188 8.78125 25.628906 9.386719 25.71875 C 9.4375 25.726562 9.460938 25.648438 9.410156 25.640625 " fill-opacity="1" fill-rule="nonzero"/><path fill="#cf785d" d="M 9.035156 26.078125 C 8.628906 25.988281 8.238281 25.863281 7.859375 25.699219 C 7.8125 25.679688 7.769531 25.75 7.820312 25.769531 C 8.203125 25.9375 8.601562 26.066406 9.011719 26.15625 C 9.0625 26.167969 9.085938 26.089844 9.035156 26.078125 " fill-opacity="1" fill-rule="nonzero"/><path fill="#cf785d" d="M 12.792969 15.660156 C 12.558594 15.800781 12.359375 15.980469 12.195312 16.203125 C 12.167969 16.242188 12.238281 16.28125 12.265625 16.242188 C 12.402344 16.058594 12.570312 15.902344 12.761719 15.777344 C 12.769531 15.777344 12.78125 15.773438 12.789062 15.765625 C 12.808594 15.753906 12.824219 15.738281 12.84375 15.722656 C 12.878906 15.695312 12.832031 15.636719 12.792969 15.660156 " fill-opacity="1" fill-rule="nonzero"/><path fill="#cf785d" d="M 3.316406 18.15625 C 2.949219 17.949219 2.558594 17.816406 2.140625 17.761719 C 2.089844 17.757812 2.066406 17.832031 2.121094 17.839844 C 2.527344 17.894531 2.914062 18.023438 3.277344 18.222656 C 3.320312 18.25 3.363281 18.179688 3.316406 18.15625 " fill-opacity="1" fill-rule="nonzero"/><path fill="#cf785d" d="M 1.699219 17.605469 C 1.421875 17.148438 1.09375 16.726562 0.71875 16.339844 C 0.683594 16.304688 0.625 16.359375 0.664062 16.398438 C 1.03125 16.777344 1.355469 17.195312 1.628906 17.648438 C 1.65625 17.691406 1.726562 17.648438 1.699219 17.605469 " fill-opacity="1" fill-rule="nonzero"/><path fill="#cf785d" d="M 2.035156 17.425781 C 1.707031 17.015625 1.359375 16.625 0.988281 16.253906 C 0.953125 16.214844 0.894531 16.273438 0.933594 16.308594 C 1.304688 16.683594 1.652344 17.074219 1.976562 17.484375 C 2.011719 17.523438 2.066406 17.46875 2.035156 17.425781 " fill-opacity="1" fill-rule="nonzero"/><path fill="#cf785d" d="M 2.253906 17.195312 C 2.074219 16.988281 1.871094 16.804688 1.652344 16.644531 C 1.609375 16.613281 1.570312 16.679688 1.609375 16.710938 C 1.824219 16.871094 2.019531 17.050781 2.195312 17.253906 C 2.230469 17.292969 2.289062 17.234375 2.253906 17.195312 " fill-opacity="1" fill-rule="nonzero"/><path fill="#727682" d="M 16.515625 18.769531 C 16.5 18.773438 16.480469 18.769531 16.46875 18.757812 C 16.453125 18.742188 16.453125 18.71875 16.46875 18.703125 C 16.53125 18.628906 17.230469 17.140625 17.316406 16.90625 C 17.4375 16.570312 17.433594 16.371094 17.433594 16.367188 C 17.433594 16.34375 17.453125 16.328125 17.472656 16.328125 C 17.496094 16.328125 17.515625 16.34375 17.515625 16.367188 C 17.515625 16.375 17.519531 16.582031 17.390625 16.933594 C 17.332031 17.097656 16.597656 18.695312 16.527344 18.761719 C 16.523438 18.761719 16.519531 18.765625 16.515625 18.769531 " fill-opacity="1" fill-rule="nonzero"/><path fill="#727682" d="M 8.269531 18.625 C 8.261719 18.625 8.257812 18.621094 8.25 18.617188 C 8.175781 18.554688 7.460938 17.164062 7.386719 16.980469 C 7.25 16.636719 7.171875 16.273438 7.171875 16.269531 C 7.167969 16.246094 7.179688 16.226562 7.203125 16.222656 C 7.222656 16.21875 7.246094 16.230469 7.25 16.253906 C 7.25 16.257812 7.328125 16.613281 7.464844 16.953125 C 7.550781 17.171875 8.246094 18.492188 8.304688 18.558594 C 8.320312 18.570312 8.324219 18.597656 8.308594 18.613281 C 8.296875 18.625 8.28125 18.628906 8.269531 18.625 " fill-opacity="1" fill-rule="nonzero"/></svg>