<svg xmlns="http://www.w3.org/2000/svg" xmlns:xlink="http://www.w3.org/1999/xlink" width="50" zoomAndPan="magnify" viewBox="0 0 37.5 37.499999" height="50" preserveAspectRatio="xMidYMid meet" version="1.0"><defs><clipPath id="36dd3bf68e"><path d="M 32 25 L 36.117188 25 L 36.117188 37 L 32 37 Z M 32 25 " clip-rule="nonzero"/></clipPath></defs><path fill="#854027" d="M 14.394531 35.476562 C 14.84375 35.558594 16.175781 35.433594 16.175781 35.433594 C 16.175781 35.433594 17.019531 34.703125 16.554688 34.394531 C 16.480469 34.34375 16.359375 34.144531 16.183594 33.8125 C 15.917969 33.320312 15.40625 33.167969 15.234375 33.164062 C 14.976562 33.15625 14.675781 33.476562 14.675781 33.476562 C 14.675781 33.476562 14.480469 33.472656 14.421875 33.574219 C 14.292969 33.808594 14.359375 34.089844 14.359375 34.089844 C 14.359375 34.089844 14.117188 34.0625 14.195312 34.53125 C 14.113281 34.765625 13.972656 34.769531 14.191406 35.117188 C 14.0625 35.316406 14.28125 35.457031 14.394531 35.476562 " fill-opacity="1" fill-rule="nonzero"/><path fill="#d3d2d2" d="M 16.433594 34.066406 L 15.820312 35.660156 C 15.820312 35.660156 20.957031 37.496094 23.519531 36.042969 C 24.8125 35.3125 23.902344 33.289062 22.289062 34.027344 C 20.765625 34.726562 16.433594 34.066406 16.433594 34.066406 " fill-opacity="1" fill-rule="nonzero"/><path fill="#1e2528" d="M 28.367188 36.980469 C 27.761719 36.644531 27.347656 36.414062 27.347656 36.414062 C 27.347656 36.414062 27.078125 36.648438 26.699219 36.980469 L 28.367188 36.980469 " fill-opacity="1" fill-rule="nonzero"/><path fill="#15161e" d="M 29.21875 23.230469 C 25.464844 23.210938 24.421875 20.199219 24.421875 20.199219 C 24.421875 20.199219 22.765625 19.285156 22.765625 16.789062 C 22.765625 14.550781 23.125 12.242188 26.464844 11.90625 C 31.03125 11.449219 33.128906 13.113281 33.152344 16.738281 C 33.171875 19.972656 31.824219 23.246094 29.21875 23.230469 " fill-opacity="1" fill-rule="nonzero"/><path fill="#d3d2d2" d="M 23.3125 27.445312 C 23.40625 26.953125 23.796875 26.253906 24.402344 26.074219 C 24.65625 25.984375 24.734375 33.167969 24.734375 33.167969 L 24.9375 35.632812 C 24.9375 35.632812 22.09375 36.097656 21.925781 34.042969 C 21.722656 31.527344 23.222656 27.941406 23.3125 27.445312 " fill-opacity="1" fill-rule="nonzero"/><path fill="#e9e9e9" d="M 24.597656 35.761719 C 24.539062 35.761719 24.476562 35.757812 24.410156 35.75 C 24.265625 35.730469 24.136719 35.703125 24.019531 35.671875 C 24.109375 35.675781 24.191406 35.675781 24.273438 35.675781 C 24.660156 35.675781 24.9375 35.632812 24.9375 35.632812 L 24.75 33.367188 C 24.769531 33.429688 25.039062 33.996094 25.164062 34.5625 C 25.300781 35.160156 25.269531 35.761719 24.597656 35.761719 M 24.75 33.359375 L 24.734375 33.167969 L 24.75 33.359375 " fill-opacity="1" fill-rule="nonzero"/><path fill="#c2c1c1" d="M 24.273438 35.675781 C 24.191406 35.675781 24.109375 35.675781 24.019531 35.671875 C 22.691406 35.296875 23.167969 34.058594 23.421875 32 C 23.535156 31.082031 24.097656 28.914062 24.097656 28.914062 L 24.734375 33.167969 L 24.75 33.359375 C 24.75 33.359375 24.75 33.363281 24.75 33.367188 L 24.9375 35.632812 C 24.9375 35.632812 24.660156 35.675781 24.273438 35.675781 " fill-opacity="1" fill-rule="nonzero"/><path fill="#c4c3c3" d="M 33.847656 36.980469 C 33.644531 34.542969 33.222656 31.722656 33.222656 31.203125 C 33.222656 28.769531 33.726562 25.847656 32.839844 25.53125 C 31.953125 25.21875 30.652344 25.207031 30.652344 25.207031 L 28.738281 26.300781 L 26.824219 25.207031 C 26.824219 25.207031 25.292969 25.761719 24.402344 26.074219 C 24.089844 28.941406 23.9375 30.441406 23.816406 31.613281 C 23.710938 32.636719 23.933594 36.132812 23.992188 36.980469 L 33.847656 36.980469 " fill-opacity="1" fill-rule="nonzero"/><path fill="#196469" d="M 34.050781 36.980469 C 33.664062 34.242188 33.222656 31.628906 33.222656 31.203125 C 33.222656 28.769531 33.726562 25.847656 32.839844 25.53125 C 31.953125 25.21875 30.824219 25.210938 30.824219 25.210938 L 30.003906 30.613281 L 30.382812 36.980469 L 34.050781 36.980469 " fill-opacity="1" fill-rule="nonzero"/><path fill="#196469" d="M 23.78125 36.980469 L 26.160156 36.980469 L 26.574219 30.40625 L 25.992188 25.507812 C 25.488281 25.6875 24.859375 25.914062 24.402344 26.074219 C 24.089844 28.941406 23.9375 30.441406 23.816406 31.613281 C 23.695312 32.78125 23.789062 36.902344 23.789062 36.902344 C 23.789062 36.902344 23.789062 36.933594 23.78125 36.980469 " fill-opacity="1" fill-rule="nonzero"/><path fill="#854027" d="M 26.824219 25.207031 C 26.714844 25.960938 25.960938 26.828125 27.78125 26.828125 C 29.601562 26.828125 30.460938 26.0625 30.652344 25.207031 C 29.925781 25.082031 29.644531 23.328125 30.195312 22.179688 C 30.746094 21.035156 26.695312 21.933594 27.199219 22.484375 C 27.703125 23.03125 27.550781 25.082031 26.824219 25.207031 " fill-opacity="1" fill-rule="nonzero"/><path fill="#6b2f1c" d="M 27.257812 24.8125 C 27.363281 24.601562 27.433594 24.328125 27.46875 24.042969 C 27.808594 23.945312 28.199219 23.765625 28.597656 23.53125 C 28.296875 24.109375 27.847656 24.585938 27.257812 24.8125 " fill-opacity="1" fill-rule="nonzero"/><path fill="#854027" d="M 31.742188 14.90625 L 31.539062 19.824219 C 31.539062 21.738281 28.328125 24.132812 26.929688 24.132812 C 25.753906 24.132812 23.96875 22.148438 23.703125 20.363281 C 23.398438 18.304688 23.648438 15.796875 23.738281 14.90625 L 31.742188 14.90625 " fill-opacity="1" fill-rule="nonzero"/><path fill="#854027" d="M 30.660156 19.136719 C 30.660156 19.71875 30.886719 20.132812 31.523438 20.195312 C 32.453125 20.285156 32.621094 19.5 32.613281 19.011719 C 32.601562 18.449219 32.054688 18.070312 31.714844 18.089844 C 31.074219 18.132812 30.660156 18.550781 30.660156 19.136719 " fill-opacity="1" fill-rule="nonzero"/><path fill="#15161e" d="M 28.699219 18.257812 C 28.699219 18.460938 28.535156 18.625 28.328125 18.625 C 28.125 18.625 27.960938 18.460938 27.960938 18.257812 C 27.960938 18.054688 28.125 17.890625 28.328125 17.890625 C 28.535156 17.890625 28.699219 18.054688 28.699219 18.257812 " fill-opacity="1" fill-rule="nonzero"/><path fill="#15161e" d="M 25.160156 18.257812 C 25.160156 18.460938 24.996094 18.625 24.789062 18.625 C 24.585938 18.625 24.421875 18.460938 24.421875 18.257812 C 24.421875 18.054688 24.585938 17.890625 24.789062 17.890625 C 24.996094 17.890625 25.160156 18.054688 25.160156 18.257812 " fill-opacity="1" fill-rule="nonzero"/><path fill="#ffffff" d="M 27.78125 20.90625 C 27.78125 21.804688 26.957031 21.980469 26.535156 21.980469 C 26.117188 21.980469 25.148438 21.804688 25.148438 20.90625 L 27.78125 20.90625 " fill-opacity="1" fill-rule="nonzero"/><path fill="#75341f" d="M 26.78125 19.796875 C 26.726562 19.621094 26.535156 19.492188 26.308594 19.492188 C 26.085938 19.492188 25.894531 19.621094 25.839844 19.796875 C 25.828125 19.761719 25.820312 19.726562 25.820312 19.691406 C 25.820312 19.46875 26.042969 19.285156 26.308594 19.285156 C 26.578125 19.285156 26.800781 19.46875 26.800781 19.691406 C 26.800781 19.726562 26.792969 19.761719 26.78125 19.796875 " fill-opacity="1" fill-rule="nonzero"/><path fill="#75341f" d="M 31.851562 19.730469 C 31.824219 19.730469 31.796875 19.726562 31.769531 19.722656 C 31.460938 19.667969 31.359375 19.285156 31.359375 19.097656 C 31.414062 19.085938 31.457031 19.082031 31.496094 19.082031 C 31.859375 19.082031 31.574219 19.554688 31.722656 19.644531 C 31.742188 19.65625 31.765625 19.664062 31.789062 19.664062 C 31.953125 19.664062 32.175781 19.382812 32.179688 19.175781 C 32.203125 18.570312 31.628906 18.46875 31.628906 18.46875 C 31.628906 18.46875 31.640625 18.46875 31.660156 18.46875 C 31.800781 18.46875 32.339844 18.507812 32.34375 19.140625 C 32.34375 19.484375 32.121094 19.730469 31.851562 19.730469 " fill-opacity="1" fill-rule="nonzero"/><path fill="#15161e" d="M 24.058594 17.425781 C 24.082031 17.503906 24.230469 17.3125 24.582031 17.199219 C 24.796875 17.128906 24.980469 17.199219 25.113281 17.253906 C 25.246094 17.308594 25.300781 16.988281 25.230469 16.933594 C 25.148438 16.863281 24.847656 16.785156 24.5625 16.882812 C 24.214844 16.992188 24.035156 17.351562 24.058594 17.425781 " fill-opacity="1" fill-rule="nonzero"/><path fill="#15161e" d="M 29.21875 17.410156 C 29.195312 17.484375 28.992188 17.355469 28.640625 17.242188 C 28.425781 17.171875 28.242188 17.242188 28.109375 17.292969 C 27.976562 17.347656 27.921875 17.03125 27.988281 16.976562 C 28.074219 16.902344 28.371094 16.828125 28.660156 16.921875 C 29.003906 17.035156 29.242188 17.335938 29.21875 17.410156 " fill-opacity="1" fill-rule="nonzero"/><path fill="#131318" d="M 23.515625 18.023438 L 23.566406 17.332031 C 23.5625 17.519531 23.558594 17.714844 23.558594 17.910156 C 23.53125 17.980469 23.515625 18.023438 23.515625 18.023438 M 31.738281 15.023438 L 31.742188 14.90625 L 31.753906 14.90625 C 31.753906 14.90625 31.75 14.949219 31.738281 15.023438 " fill-opacity="1" fill-rule="nonzero"/><path fill="#75341f" d="M 30.71875 18.78125 C 30.808594 17.683594 30.230469 16.3125 29.296875 16.3125 C 29.089844 16.3125 28.863281 16.382812 28.621094 16.539062 C 28.210938 16.804688 27.839844 16.902344 27.496094 16.902344 C 27.027344 16.902344 26.613281 16.714844 26.226562 16.53125 C 25.84375 16.347656 25.484375 16.164062 25.128906 16.164062 C 24.878906 16.164062 24.628906 16.257812 24.367188 16.503906 C 23.9375 16.90625 23.660156 17.632812 23.558594 17.910156 C 23.558594 17.714844 23.5625 17.519531 23.566406 17.332031 L 23.757812 14.90625 L 31.742188 14.90625 L 31.738281 15.023438 C 31.667969 15.496094 31.394531 17.234375 31.089844 18.292969 C 30.914062 18.414062 30.785156 18.582031 30.71875 18.78125 " fill-opacity="1" fill-rule="nonzero"/><path fill="#75341f" d="M 30.660156 19.136719 C 30.6875 19.023438 30.707031 18.90625 30.71875 18.78125 C 30.785156 18.582031 30.914062 18.414062 31.089844 18.292969 C 30.949219 18.785156 30.800781 19.132812 30.660156 19.136719 " fill-opacity="1" fill-rule="nonzero"/><path fill="#15161e" d="M 23.5 14.222656 C 23.285156 15.324219 23.289062 17.148438 23.554688 17.734375 C 23.515625 16.160156 24.339844 14.554688 26.03125 15.910156 C 27.582031 17.152344 28.988281 14.734375 30.058594 16.136719 C 31.097656 17.5 30.652344 19.539062 30.652344 19.539062 L 31.03125 19.355469 C 31.03125 19.355469 31.535156 18.808594 31.933594 17.441406 C 32.167969 16.636719 32.0625 15.238281 31.941406 14.222656 L 23.5 14.222656 " fill-opacity="1" fill-rule="nonzero"/><path fill="#854027" d="M 35.765625 36.980469 C 35.785156 33.425781 35.152344 30.066406 35.152344 30.066406 L 33.476562 30.726562 C 33.476562 30.726562 34.230469 33.589844 34.402344 36.980469 L 35.765625 36.980469 " fill-opacity="1" fill-rule="nonzero"/><g clip-path="url(#36dd3bf68e)"><path fill="#d3d2d2" d="M 34.003906 36.980469 L 36.003906 36.980469 C 36.105469 32.996094 35.765625 26.839844 32.839844 25.53125 C 32.238281 25.40625 32.339844 29.027344 32.84375 29.882812 C 33.394531 30.734375 33.78125 34.277344 34.003906 36.980469 " fill-opacity="1" fill-rule="nonzero"/></g><path fill="#1e2528" d="M 11.320312 36.980469 C 11.070312 36.765625 10.910156 36.625 10.910156 36.625 C 10.910156 36.625 10.660156 36.761719 10.265625 36.980469 L 11.320312 36.980469 " fill-opacity="1" fill-rule="nonzero"/><path fill="#15161e" d="M 9.066406 23.65625 C 12.757812 23.640625 13.96875 21.140625 13.96875 21.140625 C 13.96875 21.140625 15.160156 19.949219 15.238281 16.804688 C 15.277344 15.179688 14.746094 11.335938 11.929688 12.625 C 7.921875 10.675781 5.222656 13.707031 5.199219 17.273438 C 5.183594 20.453125 6.503906 23.671875 9.066406 23.65625 " fill-opacity="1" fill-rule="nonzero"/><path fill="#d3d2d2" d="M 14.875 27.804688 C 14.789062 27.316406 14.402344 26.632812 13.804688 26.453125 C 13.558594 26.367188 13.476562 33.433594 13.476562 33.433594 L 13.277344 35.855469 C 13.277344 35.855469 15.808594 36.261719 15.972656 34.238281 C 16.171875 31.765625 14.964844 28.289062 14.875 27.804688 " fill-opacity="1" fill-rule="nonzero"/><path fill="#c2c1c1" d="M 14.382812 33.863281 C 14.414062 33.042969 14.421875 32.289062 14.378906 31.902344 C 14.335938 31.476562 14.289062 31.011719 14.230469 30.449219 C 14.285156 30.609375 14.335938 30.765625 14.378906 30.914062 C 14.722656 32.121094 15.417969 33.042969 14.382812 33.863281 " fill-opacity="1" fill-rule="nonzero"/><path fill="#a22020" d="M 4.53125 36.980469 L 14.222656 36.980469 C 14.292969 35.898438 14.476562 32.84375 14.378906 31.902344 C 14.261719 30.75 14.113281 29.273438 13.804688 26.453125 C 12.929688 26.148438 11.425781 25.601562 11.425781 25.601562 L 9.542969 26.675781 L 7.660156 25.601562 C 7.660156 25.601562 6.378906 25.613281 5.507812 25.921875 C 4.632812 26.230469 5.132812 29.105469 5.132812 31.496094 C 5.132812 31.996094 4.738281 34.632812 4.53125 36.980469 " fill-opacity="1" fill-rule="nonzero"/><path fill="#d3d2d2" d="M 6.410156 25.707031 C 7.066406 25.605469 7.660156 25.601562 7.660156 25.601562 L 9.542969 26.675781 L 11.425781 25.601562 C 11.425781 25.601562 12.144531 25.863281 12.878906 26.125 C 13.207031 26.242188 11.457031 29.046875 10.554688 29.355469 C 9.648438 29.664062 6.105469 25.753906 6.410156 25.707031 " fill-opacity="1" fill-rule="nonzero"/><path fill="#951d1d" d="M 6.003906 36.605469 C 5.878906 36.605469 5.753906 36.601562 5.632812 36.589844 C 5.664062 36.335938 5.671875 36.050781 5.671875 35.757812 C 5.8125 35.765625 5.960938 35.769531 6.105469 35.769531 C 8.707031 35.769531 11.816406 34.257812 11.832031 34.25 L 11.742188 34.078125 C 12.148438 34.0625 12.917969 34.027344 13.230469 33.933594 C 13.335938 33.902344 13.535156 33.742188 13.386719 33.558594 C 13.476562 33.371094 13.484375 33.285156 13.453125 33.214844 C 13.714844 33.335938 13.988281 33.421875 14.285156 33.421875 C 14.316406 33.421875 14.347656 33.421875 14.378906 33.417969 C 14.191406 33.972656 13.832031 34.117188 13.832031 34.117188 L 13.5 36.308594 C 13.386719 36.339844 13.246094 36.355469 13.085938 36.355469 C 11.875 36.355469 9.53125 35.511719 9.53125 35.511719 C 9.53125 35.511719 7.773438 36.605469 6.003906 36.605469 M 6.449219 33.492188 C 6.296875 33.492188 6.148438 33.488281 6.011719 33.476562 C 5.832031 33.464844 5.664062 33.441406 5.511719 33.40625 C 5.507812 33.34375 5.507812 33.289062 5.507812 33.238281 C 5.507812 33.164062 5.507812 33.082031 5.507812 33.007812 C 5.558594 33.011719 5.605469 33.011719 5.65625 33.011719 C 6.019531 33.011719 6.324219 32.90625 6.625 32.796875 C 6.925781 32.691406 7.222656 32.585938 7.574219 32.585938 C 7.679688 32.585938 7.792969 32.59375 7.914062 32.617188 C 8.523438 32.738281 9.023438 32.886719 9.542969 32.886719 C 9.925781 32.886719 10.320312 32.804688 10.777344 32.574219 C 10.976562 32.472656 11.167969 32.417969 11.34375 32.398438 C 11.328125 32.429688 11.3125 32.464844 11.296875 32.503906 C 11.234375 32.664062 11.179688 32.796875 11.128906 32.894531 L 11.058594 32.757812 C 11.058594 32.757812 10.613281 32.878906 9.957031 33.019531 C 8.988281 33.230469 7.5625 33.492188 6.449219 33.492188 " fill-opacity="1" fill-rule="nonzero"/><path fill="#f9aa78" d="M 11.425781 25.601562 C 11.53125 26.34375 10.480469 27.195312 10.480469 27.195312 C 10.480469 27.195312 7.847656 26.445312 7.660156 25.601562 C 8.371094 25.476562 8.648438 23.753906 8.105469 22.625 C 7.566406 21.496094 11.550781 22.382812 11.054688 22.921875 C 10.558594 23.460938 10.707031 25.476562 11.425781 25.601562 " fill-opacity="1" fill-rule="nonzero"/><path fill="#e8d6cf" d="M 11 25.214844 C 10.996094 25.214844 10.996094 25.214844 10.996094 25.214844 C 10.894531 25.007812 10.824219 24.738281 10.789062 24.457031 C 10.824219 24.738281 10.894531 25.007812 11 25.214844 " fill-opacity="1" fill-rule="nonzero"/><path fill="#e39163" d="M 10.996094 25.214844 C 10.414062 24.988281 9.972656 24.523438 9.679688 23.953125 C 10.070312 24.183594 10.453125 24.359375 10.789062 24.457031 C 10.824219 24.738281 10.894531 25.007812 10.996094 25.214844 " fill-opacity="1" fill-rule="nonzero"/><path fill="#f9aa78" d="M 6.585938 15.46875 L 6.785156 20.308594 C 6.785156 22.1875 9.941406 24.542969 11.320312 24.542969 C 12.476562 24.542969 14.234375 22.59375 14.492188 20.835938 C 14.792969 18.8125 14.546875 16.347656 14.457031 15.46875 L 6.585938 15.46875 " fill-opacity="1" fill-rule="nonzero"/><path fill="#f9aa78" d="M 7.648438 19.632812 C 7.648438 20.203125 7.429688 20.609375 6.800781 20.671875 C 5.886719 20.757812 5.71875 19.988281 5.730469 19.511719 C 5.742188 18.957031 6.277344 18.582031 6.613281 18.601562 C 7.242188 18.644531 7.648438 19.054688 7.648438 19.632812 " fill-opacity="1" fill-rule="nonzero"/><path fill="#15161e" d="M 9.578125 18.765625 C 9.578125 18.964844 9.742188 19.128906 9.941406 19.128906 C 10.144531 19.128906 10.304688 18.964844 10.304688 18.765625 C 10.304688 18.566406 10.144531 18.40625 9.941406 18.40625 C 9.742188 18.40625 9.578125 18.566406 9.578125 18.765625 " fill-opacity="1" fill-rule="nonzero"/><path fill="#15161e" d="M 13.058594 18.765625 C 13.058594 18.964844 13.222656 19.128906 13.421875 19.128906 C 13.625 19.128906 13.785156 18.964844 13.785156 18.765625 C 13.785156 18.566406 13.625 18.40625 13.421875 18.40625 C 13.222656 18.40625 13.058594 18.566406 13.058594 18.765625 " fill-opacity="1" fill-rule="nonzero"/><path fill="#ffffff" d="M 10.480469 21.371094 C 10.480469 22.253906 11.292969 22.429688 11.707031 22.429688 C 12.121094 22.429688 13.074219 22.253906 13.074219 21.371094 L 10.480469 21.371094 " fill-opacity="1" fill-rule="nonzero"/><path fill="#f9aa78" d="M 13.230469 33.933594 C 12.800781 34.0625 11.484375 34.085938 11.484375 34.085938 C 11.484375 34.085938 10.578125 33.460938 11 33.109375 C 11.066406 33.054688 11.164062 32.84375 11.296875 32.503906 C 11.5 31.992188 11.984375 31.789062 12.152344 31.765625 C 12.40625 31.726562 12.730469 32.007812 12.730469 32.007812 C 12.730469 32.007812 12.921875 31.984375 12.992188 32.078125 C 13.144531 32.292969 13.113281 32.574219 13.113281 32.574219 C 13.113281 32.574219 13.34375 32.519531 13.320312 32.992188 C 13.425781 33.210938 13.5625 33.195312 13.386719 33.558594 C 13.535156 33.742188 13.335938 33.902344 13.230469 33.933594 " fill-opacity="1" fill-rule="nonzero"/><path fill="#dd845a" d="M 12.734375 32.007812 L 12.03125 32.214844 L 12.09375 32 L 12.289062 32.089844 L 12.734375 32.007812 " fill-opacity="1" fill-rule="nonzero"/><path fill="#d3d2d2" d="M 5.507812 25.921875 C 6.101562 25.796875 6 29.359375 5.503906 30.203125 C 4.597656 31.59375 5.617188 33.511719 5.617188 33.511719 C 5.617188 33.511719 5.328125 35.90625 4.347656 35.457031 C 1.640625 34.039062 2.101562 26.644531 5.507812 25.921875 " fill-opacity="1" fill-rule="nonzero"/><path fill="#d3d2d2" d="M 11.058594 32.757812 L 11.832031 34.25 C 11.832031 34.25 7.015625 36.601562 4.347656 35.457031 C 3.007812 34.882812 3.671875 32.804688 5.328125 33.355469 C 6.894531 33.875 11.058594 32.757812 11.058594 32.757812 " fill-opacity="1" fill-rule="nonzero"/><path fill="#891a1a" d="M 6.449219 33.492188 C 6.296875 33.492188 6.148438 33.488281 6.011719 33.476562 C 6.148438 33.488281 6.296875 33.492188 6.449219 33.492188 C 7.5625 33.492188 8.988281 33.230469 9.957031 33.019531 C 8.988281 33.230469 7.5625 33.492188 6.449219 33.492188 " fill-opacity="1" fill-rule="nonzero"/><path fill="#c2c1c1" d="M 9.332031 35.210938 C 9.1875 35.207031 7.671875 34.566406 7.550781 34.554688 C 6.488281 34.476562 6.011719 34.265625 6.011719 33.476562 C 6.148438 33.488281 6.296875 33.492188 6.449219 33.492188 C 7.5625 33.492188 8.988281 33.230469 9.957031 33.019531 C 10.5625 33.15625 11.277344 33.175781 11.277344 33.175781 L 11.832031 34.25 C 11.820312 34.253906 10.746094 34.777344 9.332031 35.210938 " fill-opacity="1" fill-rule="nonzero"/><path fill="#e39163" d="M 12.390625 20.28125 C 12.335938 20.109375 12.152344 19.984375 11.929688 19.984375 C 11.707031 19.984375 11.519531 20.109375 11.46875 20.28125 C 11.457031 20.246094 11.449219 20.210938 11.449219 20.175781 C 11.449219 19.957031 11.664062 19.777344 11.929688 19.777344 C 12.195312 19.777344 12.410156 19.957031 12.410156 20.175781 C 12.410156 20.210938 12.402344 20.246094 12.390625 20.28125 " fill-opacity="1" fill-rule="nonzero"/><path fill="#e39163" d="M 6.476562 20.214844 C 6.210938 20.214844 5.996094 19.972656 5.996094 19.632812 C 5.996094 19.011719 6.527344 18.972656 6.664062 18.972656 C 6.683594 18.972656 6.695312 18.972656 6.695312 18.972656 C 6.695312 18.972656 6.132812 19.074219 6.152344 19.667969 C 6.160156 19.871094 6.378906 20.148438 6.542969 20.148438 C 6.566406 20.148438 6.585938 20.144531 6.605469 20.132812 C 6.75 20.042969 6.46875 19.578125 6.828125 19.578125 C 6.867188 19.578125 6.910156 19.582031 6.960938 19.59375 C 6.960938 19.777344 6.863281 20.152344 6.558594 20.207031 C 6.53125 20.210938 6.503906 20.214844 6.476562 20.214844 " fill-opacity="1" fill-rule="nonzero"/><path fill="#15161e" d="M 14.144531 17.949219 C 14.121094 18.023438 13.972656 17.835938 13.628906 17.726562 C 13.417969 17.65625 13.238281 17.726562 13.105469 17.777344 C 12.976562 17.832031 12.921875 17.519531 12.988281 17.464844 C 13.074219 17.394531 13.367188 17.320312 13.648438 17.414062 C 13.988281 17.523438 14.164062 17.875 14.144531 17.949219 " fill-opacity="1" fill-rule="nonzero"/><path fill="#15161e" d="M 9.066406 17.933594 C 9.089844 18.003906 9.289062 17.878906 9.636719 17.765625 C 9.847656 17.699219 10.027344 17.765625 10.160156 17.820312 C 10.289062 17.875 10.34375 17.558594 10.277344 17.503906 C 10.191406 17.433594 9.898438 17.363281 9.617188 17.453125 C 9.277344 17.566406 9.046875 17.859375 9.066406 17.933594 " fill-opacity="1" fill-rule="nonzero"/><path fill="#131419" d="M 6.59375 15.59375 C 6.578125 15.515625 6.574219 15.46875 6.574219 15.46875 L 6.585938 15.46875 L 6.59375 15.59375 " fill-opacity="1" fill-rule="nonzero"/><path fill="#e39163" d="M 7.589844 19.269531 C 7.519531 19.078125 7.398438 18.917969 7.226562 18.800781 C 6.929688 17.765625 6.664062 16.066406 6.59375 15.59375 L 6.585938 15.46875 L 14.4375 15.46875 L 14.585938 18.503906 C 14.574219 18.503906 14.386719 17.519531 13.839844 17.039062 C 13.757812 16.964844 13.546875 16.941406 13.246094 16.941406 C 12.898438 16.941406 12.429688 16.972656 11.886719 17.007812 C 11.339844 17.039062 10.71875 17.074219 10.0625 17.074219 C 9.738281 17.074219 9.402344 17.066406 9.066406 17.042969 C 9.046875 17.042969 9.027344 17.042969 9.007812 17.042969 C 8.195312 17.042969 7.480469 18.09375 7.589844 19.269531 " fill-opacity="1" fill-rule="nonzero"/><path fill="#e39163" d="M 7.648438 19.632812 C 7.515625 19.628906 7.367188 19.285156 7.226562 18.800781 C 7.398438 18.917969 7.519531 19.078125 7.589844 19.269531 C 7.601562 19.390625 7.621094 19.507812 7.648438 19.632812 " fill-opacity="1" fill-rule="nonzero"/><path fill="#15161e" d="M 14.691406 14.796875 C 14.902344 15.878906 14.902344 17.675781 14.636719 18.25 C 14.296875 16.8125 13.75 16.0625 11.679688 16.597656 C 9.890625 17.0625 8.847656 15.894531 7.792969 17.273438 C 6.773438 18.609375 7.648438 19.632812 7.648438 19.632812 L 7.285156 19.847656 C 7.285156 19.847656 6.792969 19.308594 6.398438 17.960938 C 6.171875 17.171875 6.269531 15.796875 6.390625 14.796875 L 14.691406 14.796875 " fill-opacity="1" fill-rule="nonzero"/><path fill="#f9aa78" d="M 6.511719 34.09375 C 6.941406 34.214844 8.257812 34.210938 8.257812 34.210938 C 8.257812 34.210938 9.15625 33.574219 8.726562 33.226562 C 8.660156 33.171875 8.558594 32.964844 8.414062 32.625 C 8.203125 32.121094 7.714844 31.925781 7.550781 31.902344 C 7.296875 31.871094 6.972656 32.15625 6.972656 32.15625 C 6.972656 32.15625 6.78125 32.136719 6.714844 32.230469 C 6.566406 32.449219 6.605469 32.730469 6.605469 32.730469 C 6.605469 32.730469 6.375 32.679688 6.40625 33.148438 C 6.304688 33.371094 6.164062 33.359375 6.347656 33.71875 C 6.199219 33.90625 6.402344 34.0625 6.511719 34.09375 " fill-opacity="1" fill-rule="nonzero"/><path fill="#dd845a" d="M 6.972656 32.15625 L 7.679688 32.351562 L 7.613281 32.136719 L 7.417969 32.230469 L 6.972656 32.15625 " fill-opacity="1" fill-rule="nonzero"/><path fill="#d3d2d2" d="M 8.425781 32.984375 L 7.679688 34.488281 C 7.679688 34.488281 12.539062 36.753906 15.183594 35.566406 C 16.515625 34.964844 15.8125 32.902344 14.164062 33.480469 C 12.605469 34.027344 8.425781 32.984375 8.425781 32.984375 " fill-opacity="1" fill-rule="nonzero"/><path fill="#6fc1c2" d="M 10.140625 1.894531 C 11.710938 0.09375 22.058594 -0.00390625 23.433594 1.894531 C 24.804688 3.796875 24.707031 7.546875 23.433594 9.199219 C 23.125 9.597656 22.289062 9.90625 21.175781 10.121094 L 21.234375 13.359375 L 19.007812 10.640625 C 15.113281 10.628906 11.070312 10.238281 10.140625 9.199219 C 8.570312 7.449219 8.570312 3.699219 10.140625 1.894531 " fill-opacity="1" fill-rule="nonzero"/></svg>