<svg xmlns="http://www.w3.org/2000/svg" xmlns:xlink="http://www.w3.org/1999/xlink" width="50" zoomAndPan="magnify" viewBox="0 0 37.5 37.499999" height="50" preserveAspectRatio="xMidYMid meet" version="1.0"><defs><clipPath id="a26eadedef"><path d="M 0 0 L 37.007812 0 L 37.007812 37.007812 L 0 37.007812 Z M 0 0 " clip-rule="nonzero"/></clipPath></defs><g clip-path="url(#a26eadedef)"><path fill="#f9fafb" d="M 37.210938 6.210938 C 37.390625 6.386719 37.503906 6.632812 37.503906 6.90625 C 37.503906 7.179688 37.390625 7.429688 37.210938 7.605469 L 31.289062 13.527344 C 31.113281 13.707031 30.863281 13.816406 30.59375 13.816406 C 30.046875 13.816406 29.605469 13.375 29.605469 12.828125 C 29.605469 12.554688 29.714844 12.308594 29.894531 12.128906 L 34.132812 7.894531 L 8.882812 7.894531 C 7.246094 7.894531 5.921875 9.21875 5.921875 10.855469 L 5.921875 14.800781 C 5.921875 15.347656 5.480469 15.789062 4.933594 15.789062 C 4.390625 15.789062 3.949219 15.347656 3.949219 14.800781 L 3.949219 10.855469 C 3.949219 8.128906 6.15625 5.921875 8.882812 5.921875 L 34.132812 5.921875 L 29.894531 1.683594 C 29.714844 1.507812 29.605469 1.257812 29.605469 0.988281 C 29.605469 0.441406 30.046875 0 30.59375 0 C 30.863281 0 31.113281 0.109375 31.289062 0.289062 Z M 32.566406 21.710938 C 32.019531 21.710938 31.578125 22.152344 31.578125 22.699219 L 31.578125 26.644531 C 31.578125 28.28125 30.253906 29.605469 28.617188 29.605469 L 3.367188 29.605469 L 7.605469 25.371094 C 7.785156 25.191406 7.894531 24.945312 7.894531 24.671875 C 7.894531 24.125 7.453125 23.683594 6.90625 23.683594 C 6.636719 23.683594 6.386719 23.792969 6.210938 23.972656 L 0.289062 29.894531 C 0.109375 30.070312 -0.00390625 30.320312 -0.00390625 30.59375 C -0.00390625 30.867188 0.109375 31.113281 0.289062 31.289062 L 6.210938 37.210938 C 6.386719 37.390625 6.636719 37.5 6.90625 37.5 C 7.453125 37.5 7.894531 37.058594 7.894531 36.511719 C 7.894531 36.242188 7.785156 35.992188 7.605469 35.816406 L 3.367188 31.578125 L 28.617188 31.578125 C 31.34375 31.578125 33.550781 29.371094 33.550781 26.644531 L 33.550781 22.699219 C 33.550781 22.152344 33.109375 21.710938 32.566406 21.710938 Z M 32.566406 21.710938 " fill-opacity="1" fill-rule="nonzero"/></g></svg>