<svg xmlns="http://www.w3.org/2000/svg" xmlns:xlink="http://www.w3.org/1999/xlink" width="100" zoomAndPan="magnify" viewBox="0 0 75 74.999997" height="100" preserveAspectRatio="xMidYMid meet" version="1.0"><defs><clipPath id="f7ad5016b9"><path d="M 7.0625 20.609375 L 67.8125 20.609375 L 67.8125 54.359375 L 7.0625 54.359375 Z M 7.0625 20.609375 " clip-rule="nonzero"/></clipPath></defs><g clip-path="url(#f7ad5016b9)"><path fill="#ffffff" d="M 7.101562 40.859375 L 13.84375 40.859375 L 13.84375 34.109375 L 7.101562 34.109375 Z M 7.101562 54.359375 L 13.84375 54.359375 L 13.84375 47.609375 L 7.101562 47.609375 Z M 7.101562 27.359375 L 13.84375 27.359375 L 13.84375 20.609375 L 7.101562 20.609375 Z M 20.585938 40.859375 L 67.777344 40.859375 L 67.777344 34.109375 L 20.585938 34.109375 Z M 20.585938 54.359375 L 67.777344 54.359375 L 67.777344 47.609375 L 20.585938 47.609375 Z M 20.585938 20.609375 L 20.585938 27.359375 L 67.777344 27.359375 L 67.777344 20.609375 Z M 20.585938 20.609375 " fill-opacity="1" fill-rule="nonzero"/></g></svg>