<svg xmlns="http://www.w3.org/2000/svg" xmlns:xlink="http://www.w3.org/1999/xlink" width="50" zoomAndPan="magnify" viewBox="0 0 37.5 37.499999" height="50" preserveAspectRatio="xMidYMid meet" version="1.0"><defs><clipPath id="c7f8f6ff66"><path d="M 8.046875 26 L 29.796875 26 L 29.796875 34 L 8.046875 34 Z M 8.046875 26 " clip-rule="nonzero"/></clipPath></defs><path fill="#e30b21" d="M 14.285156 11.148438 C 14.285156 11.148438 12.511719 8.535156 13.667969 5.085938 C 14.820312 1.636719 18.476562 0.0234375 22.136719 1.257812 C 25.796875 2.492188 26.386719 8.835938 24.964844 10.667969 C 24.875 10.816406 25.996094 12.578125 26.121094 15.621094 C 26.25 18.664062 23.125 16.386719 23.125 16.386719 C 23.125 16.386719 22.320312 14.292969 24.210938 11.195312 C 24.210938 11.195312 23.824219 11.21875 22.957031 10.992188 C 22.089844 10.765625 16.382812 11.011719 16.382812 11.011719 C 16.382812 11.011719 15.792969 11.640625 15.433594 11.699219 C 15.074219 11.761719 15.433594 12.070312 15.433594 12.070312 C 15.433594 12.070312 15.945312 13.207031 16.0625 13.933594 C 16.175781 14.660156 13.378906 16.273438 13.378906 16.273438 C 13.378906 16.273438 12.648438 12.703125 14.285156 11.148438 Z M 14.285156 11.148438 " fill-opacity="1" fill-rule="nonzero"/><path fill="#3b367c" d="M 27.054688 21.183594 C 26.601562 21.777344 25.722656 21.789062 24.96875 21.824219 C 22.578125 21.941406 20.316406 22.871094 18 23.460938 C 17.460938 23.597656 16.886719 23.714844 16.351562 23.5625 C 15.914062 23.433594 15.550781 23.140625 15.214844 22.835938 C 13.796875 21.558594 12.621094 20.054688 11.777344 18.355469 C 11.777344 18.355469 12.785156 13.863281 17.492188 12.902344 C 22.195312 11.945312 22.019531 13.160156 22.019531 13.160156 C 22.019531 13.160156 26.652344 14.1875 27.394531 18.355469 C 26.785156 19.148438 27.660156 20.390625 27.054688 21.183594 Z M 27.054688 21.183594 " fill-opacity="1" fill-rule="nonzero"/><path fill="#ff7a5a" d="M 10.367188 18.242188 C 10.421875 18.179688 11.644531 17.773438 11.777344 17.75 C 11.90625 17.726562 17.285156 17.738281 19.15625 19.214844 C 19.15625 19.214844 21.101562 17.65625 26.234375 17.644531 C 26.3125 17.644531 28.175781 18.488281 28.226562 18.566406 C 28.226562 18.566406 23.605469 23.78125 18.277344 22.574219 C 12.949219 21.367188 10.367188 18.242188 10.367188 18.242188 Z M 9.683594 35.011719 C 10.65625 37.476562 14.152344 35.773438 14.921875 35.242188 C 15.660156 34.824219 15.800781 34.828125 17.625 34.6875 C 17.074219 33.527344 16.730469 31.882812 16.5625 30.9375 C 15.636719 31.417969 14.847656 31.703125 14.132812 31.734375 C 12.65625 31.804688 8.75 32.644531 9.683594 35.011719 Z M 9.683594 35.011719 " fill-opacity="1" fill-rule="nonzero"/><path fill="#d9d9d9" d="M 18.074219 20.519531 C 18.066406 20.449219 19.027344 19.3125 19.105469 19.347656 C 19.183594 19.378906 20.285156 20.585938 20.28125 20.65625 C 20.277344 20.726562 18.09375 20.78125 18.074219 20.519531 Z M 18.074219 20.519531 " fill-opacity="1" fill-rule="nonzero"/><path fill="#e30b21" d="M 17.945312 20.449219 L 20.316406 20.527344 C 20.316406 20.527344 28.207031 18.359375 28.226562 18.566406 C 28.242188 18.777344 27.0625 26.070312 26.808594 26.238281 C 19.699219 34.566406 11.398438 26.34375 11.398438 26.34375 C 11.398438 26.34375 9.914062 18.335938 9.957031 18.214844 C 10.058594 17.941406 17.945312 20.449219 17.945312 20.449219 Z M 17.945312 20.449219 " fill-opacity="1" fill-rule="nonzero"/><g clip-path="url(#c7f8f6ff66)"><path fill="#eb5436" d="M 22.148438 27.675781 C 25.324219 26.238281 29.792969 25.3125 29.703125 29.617188 C 29.671875 31.082031 27.609375 32.777344 23.921875 33.78125 C 23.101562 32.878906 21.335938 30.128906 22.148438 27.675781 Z M 15.6875 27.675781 C 12.515625 26.238281 8.042969 25.3125 8.132812 29.617188 C 8.164062 31.082031 10.226562 32.777344 13.914062 33.78125 C 14.734375 32.878906 16.503906 30.128906 15.6875 27.675781 Z M 15.6875 27.675781 " fill-opacity="1" fill-rule="nonzero"/></g><path fill="#d9d9d9" d="M 17.894531 13.949219 C 17.523438 13.652344 21.808594 12.476562 21.808594 12.476562 L 22.019531 13.160156 C 22.019531 13.160156 19.890625 15.089844 19.46875 15.027344 C 19.214844 14.988281 18.457031 14.40625 17.894531 13.949219 Z M 20.441406 34.441406 C 21.722656 34.289062 22.886719 34.0625 23.921875 33.78125 C 23.539062 32.664062 22.390625 29.234375 22.148438 27.675781 C 21.339844 28.039062 20.617188 28.4375 20.074219 28.792969 C 19.667969 29.054688 19.285156 29.304688 18.917969 29.539062 C 18.550781 29.304688 18.167969 29.054688 17.761719 28.792969 C 17.21875 28.4375 16.496094 28.042969 15.6875 27.675781 C 15.445312 29.234375 14.296875 32.664062 13.914062 33.78125 C 14.949219 34.0625 16.113281 34.289062 17.398438 34.441406 C 17.46875 34.527344 17.546875 34.613281 17.625 34.6875 C 17.984375 34.660156 18.410156 34.628906 18.917969 34.585938 C 19.425781 34.628906 19.851562 34.660156 20.210938 34.6875 C 20.292969 34.609375 20.367188 34.527344 20.441406 34.441406 Z M 20.441406 34.441406 " fill-opacity="1" fill-rule="nonzero"/><path fill="#ff7a5a" d="M 28.152344 35.011719 C 27.183594 37.476562 23.683594 35.773438 22.917969 35.242188 C 22.179688 34.824219 22.035156 34.828125 20.210938 34.6875 C 20.761719 33.527344 21.109375 31.882812 21.273438 30.9375 C 22.199219 31.417969 22.988281 31.703125 23.703125 31.734375 C 25.183594 31.804688 29.085938 32.644531 28.152344 35.011719 Z M 28.152344 35.011719 " fill-opacity="1" fill-rule="nonzero"/><path fill="#eb5436" d="M 21.808594 12.476562 C 21.195312 13.003906 19.351562 14 17.894531 13.949219 C 17.523438 13.652344 17.238281 13.40625 17.238281 13.40625 C 17.238281 13.40625 17.523438 12.21875 17.542969 12.183594 L 21.597656 11.960938 C 21.617188 11.96875 21.632812 11.976562 21.652344 11.984375 Z M 21.808594 12.476562 " fill-opacity="1" fill-rule="nonzero"/><path fill="#d9d9d9" d="M 19.492188 12.902344 C 15.984375 12.902344 14.867188 9.113281 14.867188 9.113281 C 13.394531 9.21875 13.046875 7.222656 14.464844 7.136719 C 14.464844 7.136719 14.566406 7.199219 14.71875 7.191406 C 14.71875 7.191406 14.699219 7.128906 14.703125 7.128906 C 14.910156 7.121094 15.242188 7.113281 15.664062 7.105469 C 15.730469 6.800781 16.054688 5.308594 16.152344 5.296875 C 16.25 5.28125 15.929688 6.785156 15.863281 7.097656 C 16.527344 7.082031 17.371094 7.0625 18.269531 7.046875 C 18.28125 6.394531 18.445312 4.515625 18.515625 4.515625 C 18.589844 4.511719 18.511719 6.4375 18.484375 7.042969 C 19.269531 7.027344 20.085938 7.011719 20.855469 7.003906 C 20.828125 6.5625 20.742188 5.023438 20.769531 5.003906 C 20.804688 4.984375 21.039062 6.648438 21.085938 7 C 21.601562 6.996094 22.085938 6.992188 22.523438 6.988281 C 22.410156 6.285156 22.125 4.453125 22.21875 4.417969 C 22.316406 4.378906 22.585938 6.3125 22.679688 6.988281 C 23.394531 6.988281 23.957031 7 24.246094 7.023438 C 24.226562 7.101562 24.34375 7.03125 24.378906 7.039062 C 25.324219 7.1875 25.476562 9.039062 23.929688 9.023438 C 23.902344 9.546875 22.8125 12.902344 19.492188 12.902344 Z M 23.972656 18.195312 C 21.183594 18.53125 19.46875 19.636719 19.46875 19.636719 C 19.464844 19.753906 19.65625 19.585938 20.507812 19.214844 C 21.359375 18.847656 22.953125 18.382812 24.015625 18.304688 C 24.15625 18.273438 24.09375 18.179688 23.972656 18.195312 Z M 25.972656 18.359375 C 23.699219 18.628906 21.902344 19.289062 21.902344 19.289062 C 21.800781 19.351562 21.914062 19.363281 22.019531 19.328125 C 22.128906 19.289062 24.25 18.621094 26.019531 18.414062 C 26.109375 18.390625 26.03125 18.351562 25.972656 18.359375 Z M 13.746094 18.109375 C 13.230469 18.027344 11.320312 17.890625 11.320312 17.890625 L 11.152344 17.945312 C 11.152344 17.945312 13.988281 18.207031 13.746094 18.109375 Z M 16.753906 19.058594 C 17.574219 19.238281 18.644531 19.90625 18.644531 19.90625 L 18.710938 19.804688 C 18.242188 19.402344 16.988281 18.96875 16.828125 18.964844 C 16.667969 18.960938 16.652344 19.035156 16.753906 19.058594 Z M 16.320312 19.296875 C 15.445312 18.933594 13.332031 18.625 13.214844 18.625 C 13.101562 18.625 13.09375 18.660156 13.152344 18.675781 C 13.152344 18.675781 14.992188 18.933594 16.28125 19.34375 C 16.351562 19.367188 16.394531 19.332031 16.320312 19.296875 Z M 11.535156 24.515625 C 11.535156 24.515625 11.78125 24.464844 11.757812 24.269531 C 11.730469 24.078125 11.445312 23.949219 11.445312 23.949219 C 11.445312 23.949219 11.746094 23.914062 11.75 23.714844 C 11.757812 23.515625 11.480469 23.316406 11.480469 23.316406 C 11.648438 23.265625 11.761719 23.125 11.589844 22.933594 C 11.417969 22.742188 10.59375 22.453125 10.230469 22.542969 C 9.867188 22.636719 9.941406 23.0625 10.253906 23.164062 C 9.917969 23.269531 10.0625 23.640625 10.367188 23.777344 C 10.097656 23.851562 10.222656 24.230469 10.621094 24.378906 C 10.265625 24.503906 10.472656 24.933594 11.128906 25.023438 C 11.429688 25.066406 11.789062 24.957031 11.777344 24.8125 C 11.761719 24.664062 11.535156 24.515625 11.535156 24.515625 Z M 28.203125 23.164062 C 28.511719 23.0625 28.585938 22.636719 28.222656 22.542969 C 27.863281 22.449219 27.039062 22.742188 26.867188 22.933594 C 26.695312 23.121094 26.804688 23.265625 26.976562 23.3125 C 26.976562 23.3125 26.699219 23.511719 26.703125 23.710938 C 26.707031 23.910156 27.011719 23.949219 27.011719 23.949219 C 27.011719 23.949219 26.722656 24.078125 26.699219 24.269531 C 26.675781 24.460938 26.921875 24.511719 26.921875 24.511719 C 26.921875 24.511719 26.691406 24.660156 26.679688 24.808594 C 26.667969 24.953125 27.027344 25.066406 27.324219 25.019531 C 27.980469 24.929688 28.191406 24.5 27.832031 24.375 C 28.234375 24.230469 28.359375 23.847656 28.089844 23.773438 C 28.390625 23.640625 28.535156 23.265625 28.203125 23.164062 Z M 9.984375 33.417969 C 9.867188 33.375 9.824219 33.480469 9.921875 33.515625 C 9.960938 33.53125 11.605469 34.226562 10.753906 35.941406 C 10.679688 36.097656 10.871094 36.082031 11.019531 35.617188 C 11.164062 35.152344 11.339844 34.027344 9.984375 33.417969 Z M 21.835938 31.746094 C 21.859375 31.617188 21.871094 31.523438 21.878906 31.472656 C 21.902344 31.242188 21.757812 31.222656 21.746094 31.363281 C 21.648438 32.707031 20.800781 34.632812 20.800781 34.632812 C 20.773438 34.71875 20.882812 34.75 21.152344 34.144531 C 21.316406 34.203125 22.40625 34.566406 22.519531 34.523438 C 22.625 34.484375 21.472656 34.117188 21.199219 34.03125 C 21.226562 33.972656 21.25 33.914062 21.273438 33.847656 C 21.332031 33.699219 21.386719 33.539062 21.441406 33.378906 C 21.664062 33.445312 22.710938 33.75 22.710938 33.710938 C 22.710938 33.671875 21.738281 33.371094 21.46875 33.289062 C 21.621094 32.792969 21.734375 32.28125 21.804688 31.917969 C 22.027344 31.949219 23.074219 32.261719 23.058594 32.203125 C 23.039062 32.144531 22.027344 31.808594 21.835938 31.746094 Z M 21.859375 32.464844 C 21.855469 32.566406 23.058594 32.824219 23.058594 32.777344 C 23.058594 32.730469 21.859375 32.359375 21.859375 32.464844 Z M 27.835938 33.492188 C 26.507812 33.839844 26.710938 35.621094 27.246094 35.949219 C 27.359375 36.003906 27.207031 35.839844 27.144531 35.734375 C 27.078125 35.628906 26.734375 34.636719 27.234375 34.011719 C 27.585938 33.578125 27.820312 33.574219 27.917969 33.554688 C 28.015625 33.535156 27.980469 33.445312 27.835938 33.492188 Z M 27.835938 33.492188 " fill-opacity="1" fill-rule="nonzero"/><path fill="#ff7a5a" d="M 24.378906 7.039062 L 24.246094 7.023438 L 22.601562 7.941406 C 22.4375 7.527344 22.074219 7.203125 21.496094 7.164062 C 20.566406 7.097656 20.035156 7.695312 19.949219 8.339844 C 19.699219 8.308594 19.136719 8.269531 18.554688 8.445312 C 18.511719 7.765625 18.042969 7.09375 17.0625 7.160156 C 16.480469 7.203125 16.121094 7.53125 15.957031 7.945312 L 14.699219 7.128906 L 14.464844 7.136719 L 15.910156 8.082031 C 15.835938 8.339844 15.832031 8.621094 15.890625 8.878906 C 16.0625 9.621094 16.703125 9.890625 17.320312 9.863281 C 18.429688 9.734375 18.554688 8.882812 18.558594 8.546875 C 18.722656 8.515625 19.363281 8.402344 19.933594 8.503906 C 19.933594 8.804688 20.082031 9.730469 21.238281 9.863281 C 21.859375 9.890625 22.496094 9.621094 22.667969 8.878906 C 22.722656 8.640625 22.722656 8.386719 22.667969 8.144531 C 22.664062 8.125 24.378906 7.039062 24.378906 7.039062 Z M 16.964844 9.734375 C 15.65625 9.476562 15.792969 8.003906 16.363281 7.558594 C 16.933594 7.113281 17.957031 7.117188 18.398438 8.105469 C 18.6875 8.796875 18.191406 9.890625 16.964844 9.734375 Z M 21.628906 9.726562 C 20.402344 9.886719 19.871094 8.796875 20.164062 8.105469 C 20.601562 7.117188 21.578125 7.121094 22.148438 7.566406 C 22.71875 8.011719 22.933594 9.46875 21.628906 9.726562 Z M 26.433594 20.636719 C 26.457031 20.664062 26.296875 23.0625 26.296875 23.0625 C 26.296875 23.0625 21.78125 24.136719 21.671875 24.269531 C 21.601562 24.359375 21.699219 21.824219 21.78125 21.789062 C 22.085938 21.660156 26.269531 20.445312 26.433594 20.636719 Z M 26.433594 20.636719 " fill-opacity="1" fill-rule="nonzero"/><path fill="#3b367c" d="M 25.089844 14.863281 C 25.089844 14.863281 24.839844 12.894531 24.863281 12.769531 C 24.882812 12.644531 25.339844 14.773438 25.089844 14.863281 Z M 15.011719 12.570312 C 15.101562 12.363281 14.929688 12.207031 14.867188 12.570312 C 14.851562 12.652344 14.730469 13.601562 15.011719 14.363281 C 15.171875 14.546875 14.75 13.34375 15.011719 12.570312 Z M 20.585938 8.613281 C 20.507812 8.582031 20.53125 8.734375 20.773438 8.804688 C 20.773438 8.972656 20.796875 9.429688 21.074219 9.464844 C 21.367188 9.503906 21.414062 8.949219 21.417969 8.792969 C 21.628906 8.730469 21.691406 8.632812 21.648438 8.613281 C 21.089844 8.917969 20.585938 8.613281 20.585938 8.613281 Z M 20.648438 7.605469 C 20.609375 7.675781 20.671875 7.792969 20.75 7.792969 C 20.820312 7.789062 21.507812 7.4375 21.980469 7.722656 C 22.042969 7.757812 22.09375 7.707031 22.039062 7.652344 C 21.578125 7.238281 20.769531 7.445312 20.648438 7.605469 Z M 17.972656 8.613281 C 17.972656 8.613281 17.46875 8.917969 16.910156 8.613281 C 16.867188 8.632812 16.929688 8.730469 17.140625 8.792969 C 17.148438 8.949219 17.191406 9.503906 17.488281 9.464844 C 17.765625 9.429688 17.785156 8.976562 17.789062 8.804688 C 18.027344 8.734375 18.050781 8.582031 17.972656 8.613281 Z M 17.808594 7.792969 C 17.886719 7.792969 17.949219 7.675781 17.910156 7.605469 C 17.792969 7.445312 16.984375 7.238281 16.519531 7.652344 C 16.46875 7.707031 16.515625 7.757812 16.582031 7.722656 C 17.054688 7.4375 17.742188 7.789062 17.808594 7.792969 Z M 14.097656 7.792969 C 14.203125 7.824219 14.589844 7.824219 14.695312 8.578125 C 14.71875 8.6875 14.832031 8.671875 14.832031 8.511719 C 14.835938 8.351562 14.679688 7.832031 14.1875 7.6875 C 14.054688 7.652344 13.910156 7.683594 14.097656 7.792969 Z M 24.28125 8.398438 C 24.296875 8.324219 24.324219 7.902344 24.707031 7.960938 C 24.847656 7.953125 24.804688 7.808594 24.664062 7.792969 C 24.183594 7.792969 24.140625 8.394531 24.140625 8.398438 C 24.148438 8.578125 24.269531 8.46875 24.28125 8.398438 Z M 18.933594 9.828125 C 18.933594 9.828125 19.316406 9.394531 19.886719 9.769531 C 19.945312 9.769531 19.972656 9.726562 19.9375 9.675781 C 19.894531 9.617188 19.28125 9.289062 18.867188 9.75 C 18.804688 9.867188 18.902344 9.859375 18.933594 9.828125 Z M 20.222656 11.148438 C 19.320312 11.679688 18.652344 11.113281 18.675781 11.109375 C 18.601562 11.046875 18.570312 11.136719 18.675781 11.230469 C 18.777344 11.324219 19.382812 11.796875 20.261719 11.214844 C 20.320312 11.164062 20.277344 11.117188 20.222656 11.148438 Z M 14.285156 11.148438 C 14.226562 11.28125 14.25 11.421875 14.324219 11.554688 C 14.058594 12.015625 13.851562 13.007812 13.945312 13.011719 C 14.046875 13.015625 14.121094 12.464844 14.429688 11.703125 C 14.6875 11.992188 15.164062 12.203125 15.457031 12.121094 C 15.457031 12.121094 15.875 11.988281 15.851562 11.484375 C 14.96875 11.742188 14.285156 11.148438 14.285156 11.148438 Z M 24.964844 10.667969 C 24.476562 11.160156 23.722656 11.152344 23.722656 11.152344 C 23.699219 11.316406 23.804688 11.71875 24.339844 11.597656 C 24.273438 11.914062 24.066406 12.914062 24.113281 12.996094 C 24.15625 13.082031 24.445312 11.898438 24.53125 11.535156 C 25.195312 11.273438 24.964844 10.667969 24.964844 10.667969 Z M 17.945312 20.449219 C 17.945312 20.449219 18.261719 28.726562 18.375 28.84375 C 18.492188 28.957031 18.160156 20.449219 18.160156 20.449219 Z M 19.929688 27.867188 C 20.042969 27.839844 20.316406 20.527344 20.316406 20.527344 L 20.167969 20.519531 C 20.167969 20.519531 19.816406 27.890625 19.929688 27.867188 Z M 11.550781 23.371094 C 11.507812 23.335938 11.476562 23.316406 11.476562 23.316406 C 11.476562 23.316406 10.964844 23.410156 10.25 23.164062 C 10.234375 23.167969 10.21875 23.175781 10.203125 23.183594 C 10.671875 23.40625 11.292969 23.441406 11.550781 23.371094 Z M 10.621094 24.378906 C 10.578125 24.390625 10.546875 24.410156 10.519531 24.433594 C 10.90625 24.535156 11.382812 24.5625 11.605469 24.566406 C 11.566406 24.535156 11.535156 24.515625 11.535156 24.515625 C 11.535156 24.515625 10.914062 24.480469 10.621094 24.378906 Z M 11.445312 23.949219 C 11.445312 23.949219 10.6875 23.875 10.367188 23.777344 C 10.339844 23.785156 10.320312 23.792969 10.300781 23.808594 C 10.71875 23.96875 11.300781 24.003906 11.554688 24.011719 C 11.492188 23.972656 11.445312 23.949219 11.445312 23.949219 Z M 28.25 23.183594 C 28.234375 23.175781 28.21875 23.167969 28.203125 23.164062 C 27.488281 23.410156 26.976562 23.316406 26.976562 23.316406 C 26.976562 23.316406 26.945312 23.335938 26.90625 23.371094 C 27.140625 23.425781 27.777344 23.414062 28.25 23.183594 Z M 26.921875 24.515625 C 26.921875 24.515625 26.890625 24.535156 26.847656 24.566406 C 27.070312 24.5625 27.550781 24.535156 27.933594 24.433594 C 27.90625 24.410156 27.875 24.394531 27.832031 24.378906 C 27.539062 24.480469 26.921875 24.515625 26.921875 24.515625 Z M 27.007812 23.949219 C 27.007812 23.949219 26.960938 23.972656 26.898438 24.011719 C 27.152344 24.003906 27.734375 23.96875 28.152344 23.808594 C 28.136719 23.796875 28.113281 23.785156 28.085938 23.777344 C 27.769531 23.875 27.007812 23.949219 27.007812 23.949219 Z M 27.007812 23.949219 " fill-opacity="1" fill-rule="nonzero"/></svg>