<svg xmlns="http://www.w3.org/2000/svg" xmlns:xlink="http://www.w3.org/1999/xlink" width="50" zoomAndPan="magnify" viewBox="0 0 37.5 37.499999" height="50" preserveAspectRatio="xMidYMid meet" version="1.0"><path fill="#3b367c" d="M 15.992188 3.140625 C 17.511719 0.0351562 19.996094 0.0351562 21.515625 3.136719 L 22.410156 4.960938 C 23.929688 8.0625 27.953125 11.007812 31.351562 11.507812 L 33.332031 11.796875 C 36.730469 12.292969 37.5 14.675781 35.042969 17.09375 L 33.605469 18.511719 C 31.148438 20.929688 29.613281 25.695312 30.191406 29.105469 L 30.535156 31.105469 C 31.113281 34.515625 29.105469 35.988281 26.066406 34.375 L 24.277344 33.429688 C 21.238281 31.820312 16.269531 31.820312 13.230469 33.429688 L 11.449219 34.375 C 8.410156 35.984375 6.398438 34.515625 6.976562 31.101562 L 7.316406 29.105469 C 7.894531 25.695312 6.359375 20.929688 3.902344 18.511719 L 2.457031 17.09375 C 0 14.675781 0.769531 12.292969 4.167969 11.796875 L 6.160156 11.503906 C 9.558594 11.007812 13.582031 8.0625 15.101562 4.960938 Z M 15.992188 3.140625 " fill-opacity="1" fill-rule="nonzero"/><path fill="#fff343" d="M 23.273438 12.25 L 23.652344 13.683594 L 24.992188 13.980469 L 23.652344 14.234375 L 23.273438 15.710938 L 22.890625 14.246094 L 21.558594 13.980469 L 22.890625 13.691406 Z M 23.273438 12.25 " fill-opacity="1" fill-rule="nonzero"/><path fill="#fff343" d="M 22.410156 13.109375 L 23.316406 13.640625 L 24.136719 13.109375 L 23.59375 13.917969 L 24.136719 14.851562 L 23.210938 14.308594 L 22.410156 14.851562 L 22.9375 14.03125 Z M 22.410156 13.109375 " fill-opacity="1" fill-rule="nonzero"/><path fill="#fff343" d="M 26.320312 12.390625 L 26.4375 12.839844 L 26.859375 12.933594 L 26.4375 13.011719 L 26.320312 13.476562 L 26.199219 13.015625 L 25.777344 12.933594 L 26.199219 12.84375 Z M 26.320312 12.390625 " fill-opacity="1" fill-rule="nonzero"/><path fill="#fff343" d="M 11.425781 23.699219 L 11.804688 25.117188 L 13.125 25.414062 L 11.804688 25.664062 L 11.425781 27.125 L 11.046875 25.675781 L 9.730469 25.414062 L 11.046875 25.128906 Z M 11.425781 23.699219 " fill-opacity="1" fill-rule="nonzero"/><path fill="#fff343" d="M 22.285156 10.460938 L 22.402344 10.910156 L 22.824219 11.007812 L 22.402344 11.085938 L 22.285156 11.546875 L 22.164062 11.085938 L 21.746094 11.007812 L 22.164062 10.914062 Z M 22.285156 10.460938 " fill-opacity="1" fill-rule="nonzero"/><path fill="#fff343" d="M 25.78125 15.167969 L 25.898438 15.617188 L 26.320312 15.710938 L 25.898438 15.792969 L 25.78125 16.253906 L 25.660156 15.792969 L 25.242188 15.710938 L 25.660156 15.621094 Z M 25.78125 15.167969 " fill-opacity="1" fill-rule="nonzero"/><path fill="#fff343" d="M 13.382812 26.582031 L 13.5 27.03125 L 13.921875 27.125 L 13.5 27.207031 L 13.382812 27.667969 L 13.261719 27.210938 L 12.84375 27.125 L 13.261719 27.039062 Z M 13.382812 26.582031 " fill-opacity="1" fill-rule="nonzero"/><path fill="#ffffff" d="M 8.804688 16.617188 C 8.429688 16.617188 8.097656 16.339844 8.035156 15.953125 C 7.964844 15.523438 8.253906 15.121094 8.679688 15.050781 L 20.085938 13.203125 C 20.511719 13.136719 20.914062 13.425781 20.984375 13.855469 C 21.050781 14.285156 20.761719 14.6875 20.335938 14.757812 L 8.929688 16.605469 C 8.886719 16.613281 8.847656 16.617188 8.804688 16.617188 Z M 8.804688 16.617188 " fill-opacity="1" fill-rule="nonzero"/><path fill="#ffffff" d="M 16.445312 21.953125 L 14 21.953125 C 12.667969 21.953125 11.589844 20.863281 11.589844 19.523438 L 11.589844 11.003906 C 11.589844 10.570312 11.9375 10.21875 12.371094 10.21875 C 12.800781 10.21875 13.148438 10.570312 13.148438 11.003906 L 13.148438 19.523438 C 13.148438 19.992188 13.53125 20.378906 14 20.378906 L 16.441406 20.378906 C 17.039062 20.378906 17.820312 19.882812 18.082031 19.34375 L 19.507812 16.386719 C 19.699219 15.996094 20.164062 15.832031 20.554688 16.023438 C 20.941406 16.214844 21.101562 16.683594 20.914062 17.074219 L 19.488281 20.03125 C 18.96875 21.109375 17.632812 21.953125 16.445312 21.953125 Z M 16.445312 21.953125 " fill-opacity="1" fill-rule="nonzero"/><path fill="#ffffff" d="M 15.984375 29.9375 C 15.496094 29.9375 15.101562 29.539062 15.101562 29.046875 C 15.101562 28.554688 15.496094 28.15625 15.984375 28.15625 C 20.3125 28.15625 24.304688 22.046875 25.886719 19.285156 L 20.234375 19.441406 C 19.746094 19.457031 19.339844 19.070312 19.328125 18.578125 C 19.3125 18.085938 19.699219 17.675781 20.1875 17.660156 L 27.371094 17.460938 C 27.679688 17.457031 27.972656 17.609375 28.140625 17.871094 C 28.308594 18.132812 28.328125 18.464844 28.191406 18.746094 C 27.964844 19.203125 22.648438 29.9375 15.984375 29.9375 Z M 15.984375 29.9375 " fill-opacity="1" fill-rule="nonzero"/><path fill="#ffffff" d="M 23.273438 25.003906 C 23.050781 25.003906 22.824219 24.917969 22.652344 24.75 L 18.699219 20.828125 C 18.351562 20.480469 18.347656 19.917969 18.691406 19.566406 C 19.035156 19.214844 19.59375 19.210938 19.941406 19.554688 L 23.894531 23.476562 C 24.242188 23.824219 24.246094 24.386719 23.902344 24.738281 C 23.730469 24.914062 23.503906 25.003906 23.273438 25.003906 Z M 23.273438 25.003906 " fill-opacity="1" fill-rule="nonzero"/></svg>