<svg xmlns="http://www.w3.org/2000/svg" xmlns:xlink="http://www.w3.org/1999/xlink" width="50" zoomAndPan="magnify" viewBox="0 0 37.5 37.499999" height="50" preserveAspectRatio="xMidYMid meet" version="1.0"><defs><clipPath id="ddc9e297c7"><path d="M 0 5.203125 L 37.007812 5.203125 L 37.007812 32.203125 L 0 32.203125 Z M 0 5.203125 " clip-rule="nonzero"/></clipPath></defs><g clip-path="url(#ddc9e297c7)"><path fill="#e30917" d="M 37.5 28.046875 C 37.5 30.339844 35.632812 32.199219 33.332031 32.199219 L 4.167969 32.199219 C 1.867188 32.199219 0 30.339844 0 28.046875 L 0 9.359375 C 0 7.066406 1.867188 5.207031 4.167969 5.207031 L 33.332031 5.207031 C 35.632812 5.207031 37.5 7.066406 37.5 9.359375 Z M 37.5 28.046875 " fill-opacity="1" fill-rule="nonzero"/></g><path fill="#eeeeee" d="M 16.667969 24.929688 C 13.214844 24.929688 10.417969 22.144531 10.417969 18.703125 C 10.417969 15.261719 13.214844 12.476562 16.667969 12.476562 C 18.03125 12.476562 19.292969 12.914062 20.320312 13.65625 C 18.914062 12.074219 16.871094 11.070312 14.582031 11.070312 C 10.351562 11.070312 6.925781 14.488281 6.925781 18.703125 C 6.925781 22.917969 10.351562 26.335938 14.582031 26.335938 C 16.871094 26.335938 18.917969 25.332031 20.320312 23.75 C 19.292969 24.492188 18.035156 24.929688 16.667969 24.929688 Z M 20.742188 18.941406 L 23.285156 19.523438 L 23.511719 22.113281 L 24.855469 19.886719 L 27.398438 20.46875 L 25.683594 18.507812 L 27.023438 16.277344 L 24.625 17.296875 L 22.914062 15.335938 L 23.144531 17.925781 Z M 20.742188 18.941406 " fill-opacity="1" fill-rule="nonzero"/></svg>