<svg xmlns="http://www.w3.org/2000/svg" xmlns:xlink="http://www.w3.org/1999/xlink" width="50" zoomAndPan="magnify" viewBox="0 0 37.5 37.499999" height="50" preserveAspectRatio="xMidYMid meet" version="1.0"><defs><clipPath id="0c2b232b83"><path d="M 25 5.203125 L 37.007812 5.203125 L 37.007812 32.203125 L 25 32.203125 Z M 25 5.203125 " clip-rule="nonzero"/></clipPath><clipPath id="df8ef0a463"><path d="M 0 5.203125 L 13 5.203125 L 13 32.203125 L 0 32.203125 Z M 0 5.203125 " clip-rule="nonzero"/></clipPath><clipPath id="2146750985"><path d="M 12 5.203125 L 25 5.203125 L 25 32.203125 L 12 32.203125 Z M 12 5.203125 " clip-rule="nonzero"/></clipPath></defs><g clip-path="url(#0c2b232b83)"><path fill="#ce2b37" d="M 37.5 28.046875 C 37.5 30.339844 35.632812 32.199219 33.332031 32.199219 L 25 32.199219 L 25 5.207031 L 33.332031 5.207031 C 35.632812 5.207031 37.5 7.066406 37.5 9.359375 Z M 37.5 28.046875 " fill-opacity="1" fill-rule="nonzero"/></g><g clip-path="url(#df8ef0a463)"><path fill="#009246" d="M 4.167969 5.207031 C 1.867188 5.207031 0 7.066406 0 9.359375 L 0 28.046875 C 0 30.339844 1.867188 32.199219 4.167969 32.199219 L 12.5 32.199219 L 12.5 5.207031 Z M 4.167969 5.207031 " fill-opacity="1" fill-rule="nonzero"/></g><g clip-path="url(#2146750985)"><path fill="#eeeeee" d="M 12.5 5.207031 L 25 5.207031 L 25 32.199219 L 12.5 32.199219 Z M 12.5 5.207031 " fill-opacity="1" fill-rule="nonzero"/></g></svg>